<?xml version="1.0" encoding="utf-8"?>
<!-- Generator: Adobe Illustrator 27.0.1, SVG Export Plug-In . SVG Version: 6.00 Build 0)  -->
<svg version="1.1" id="Layer_1" xmlns="http://www.w3.org/2000/svg" xmlns:xlink="http://www.w3.org/1999/xlink" x="0px" y="0px"
	 viewBox="0 0 823 822.6" style="enable-background:new 0 0 823 822.6;" xml:space="preserve">
<style type="text/css">
	.st0{clip-path:url(#SVGID_00000152244235493905793730000000103930689884420748_);}
	.st1{fill:#F4F4F5;}
</style>
<g>
	<defs>
		<rect id="SVGID_1_" width="823" height="822.6"/>
	</defs>
	<clipPath id="SVGID_00000150062489781997685680000004401192451396470438_">
		<use xlink:href="#SVGID_1_"  style="overflow:visible;"/>
	</clipPath>
	<g style="clip-path:url(#SVGID_00000150062489781997685680000004401192451396470438_);">
		<g>
			<g>
				<polygon class="st1" points="0,0 0,9.2 26.9,9.2 26.9,36.1 36.1,36.1 36.1,0 				"/>
				
					<rect x="13.5" y="-2.9" transform="matrix(0.7071 0.7071 -0.7071 0.7071 18.1038 -7.4988)" class="st1" width="9.2" height="42"/>
			</g>
		</g>
		<g>
			<g>
				<polygon class="st1" points="46.2,0 46.2,9.2 73.1,9.2 73.1,36.1 82.3,36.1 82.3,0 				"/>
				
					<rect x="59.7" y="-2.9" transform="matrix(0.7071 0.7071 -0.7071 0.7071 31.6377 -40.1725)" class="st1" width="9.2" height="42"/>
			</g>
		</g>
		<g>
			<g>
				<polygon class="st1" points="92.4,0 92.4,9.2 119.3,9.2 119.3,36.1 128.5,36.1 128.5,0 				"/>
				
					<rect x="105.9" y="-2.9" transform="matrix(0.7071 0.7071 -0.7071 0.7071 45.1716 -72.8462)" class="st1" width="9.2" height="42"/>
			</g>
		</g>
		<g>
			<g>
				<polygon class="st1" points="138.6,0 138.6,9.2 165.5,9.2 165.5,36.1 174.7,36.1 174.7,0 				"/>
				
					<rect x="152.1" y="-2.9" transform="matrix(0.7071 0.7071 -0.7071 0.7071 58.7055 -105.5199)" class="st1" width="9.2" height="42"/>
			</g>
		</g>
		<g>
			<g>
				<polygon class="st1" points="184.8,0 184.8,9.2 211.8,9.2 211.8,36.1 220.9,36.1 220.9,0 				"/>
				
					<rect x="198.4" y="-2.9" transform="matrix(0.7071 0.7071 -0.7071 0.7071 72.2393 -138.1936)" class="st1" width="9.2" height="42"/>
			</g>
		</g>
		<g>
			<g>
				<polygon class="st1" points="231,0 231,9.2 258,9.2 258,36.1 267.2,36.1 267.2,0 				"/>
				
					<rect x="244.6" y="-2.9" transform="matrix(0.7071 0.7071 -0.7071 0.7071 85.7732 -170.8673)" class="st1" width="9.2" height="42"/>
			</g>
		</g>
		<g>
			<g>
				<polygon class="st1" points="277.2,0 277.2,9.2 304.2,9.2 304.2,36.1 313.4,36.1 313.4,0 				"/>
				
					<rect x="290.8" y="-2.9" transform="matrix(0.7071 0.7071 -0.7071 0.7071 99.3071 -203.541)" class="st1" width="9.2" height="42"/>
			</g>
		</g>
		<g>
			<g>
				<polygon class="st1" points="323.5,0 323.5,9.2 350.4,9.2 350.4,36.1 359.6,36.1 359.6,0 				"/>
				
					<rect x="337" y="-2.9" transform="matrix(0.7071 0.7071 -0.7071 0.7071 112.841 -236.2147)" class="st1" width="9.2" height="42"/>
			</g>
		</g>
		<g>
			<g>
				<polygon class="st1" points="369.7,0 369.7,9.2 396.6,9.2 396.6,36.1 405.8,36.1 405.8,0 				"/>
				
					<rect x="383.2" y="-2.9" transform="matrix(0.7071 0.7071 -0.7071 0.7071 126.3749 -268.8884)" class="st1" width="9.2" height="42"/>
			</g>
		</g>
		<g>
			<g>
				<polygon class="st1" points="415.9,0 415.9,9.2 442.8,9.2 442.8,36.1 452,36.1 452,0 				"/>
				
					<rect x="429.4" y="-2.9" transform="matrix(0.7071 0.7071 -0.7071 0.7071 139.9088 -301.5621)" class="st1" width="9.2" height="42"/>
			</g>
		</g>
		<g>
			<g>
				<polygon class="st1" points="462.1,0 462.1,9.2 489,9.2 489,36.1 498.2,36.1 498.2,0 				"/>
				
					<rect x="475.6" y="-2.9" transform="matrix(0.7071 0.7071 -0.7071 0.7071 153.4427 -334.2358)" class="st1" width="9.2" height="42"/>
			</g>
		</g>
		<g>
			<g>
				<polygon class="st1" points="508.3,0 508.3,9.2 535.2,9.2 535.2,36.1 544.4,36.1 544.4,0 				"/>
				
					<rect x="521.8" y="-2.9" transform="matrix(0.7071 0.7071 -0.7071 0.7071 166.9766 -366.9095)" class="st1" width="9.2" height="42"/>
			</g>
		</g>
		<g>
			<g>
				<polygon class="st1" points="554.5,0 554.5,9.2 581.4,9.2 581.4,36.1 590.6,36.1 590.6,0 				"/>
				
					<rect x="568" y="-2.9" transform="matrix(0.7071 0.7071 -0.7071 0.7071 180.5105 -399.5832)" class="st1" width="9.2" height="42"/>
			</g>
		</g>
		<g>
			<g>
				<polygon class="st1" points="600.7,0 600.7,9.2 627.6,9.2 627.6,36.1 636.8,36.1 636.8,0 				"/>
				
					<rect x="614.2" y="-2.9" transform="matrix(0.7071 0.7071 -0.7071 0.7071 194.0443 -432.2569)" class="st1" width="9.2" height="42"/>
			</g>
		</g>
		<g>
			<g>
				<polygon class="st1" points="646.9,0 646.9,9.2 673.8,9.2 673.8,36.1 683,36.1 683,0 				"/>
				
					<rect x="660.4" y="-2.9" transform="matrix(0.7071 0.7071 -0.7071 0.7071 207.5782 -464.9306)" class="st1" width="9.2" height="42"/>
			</g>
		</g>
		<g>
			<g>
				<polygon class="st1" points="693.1,0 693.1,9.2 720,9.2 720,36.1 729.2,36.1 729.2,0 				"/>
				
					<rect x="706.6" y="-2.9" transform="matrix(0.7071 0.7071 -0.7071 0.7071 221.1121 -497.6043)" class="st1" width="9.2" height="42"/>
			</g>
		</g>
		<g>
			<g>
				<polygon class="st1" points="739.3,0 739.3,9.2 766.2,9.2 766.2,36.1 775.4,36.1 775.4,0 				"/>
				
					<rect x="752.8" y="-2.9" transform="matrix(0.7071 0.7071 -0.7071 0.7071 234.646 -530.278)" class="st1" width="9.2" height="42"/>
			</g>
		</g>
		<g>
			<g>
				<polygon class="st1" points="785.5,0 785.5,9.2 812.4,9.2 812.4,36.1 821.6,36.1 821.6,0 				"/>
				
					<rect x="799.1" y="-2.9" transform="matrix(0.7071 0.7071 -0.7071 0.7071 248.1799 -562.9517)" class="st1" width="9.2" height="42"/>
			</g>
		</g>
		<g>
			<g>
				<polygon class="st1" points="0,46.2 0,55.4 26.9,55.4 26.9,82.3 36.1,82.3 36.1,46.2 				"/>
				
					<rect x="13.5" y="43.3" transform="matrix(0.7071 0.7071 -0.7071 0.7071 50.7775 6.0351)" class="st1" width="9.2" height="42"/>
			</g>
		</g>
		<g>
			<g>
				<polygon class="st1" points="46.2,46.2 46.2,55.4 73.1,55.4 73.1,82.3 82.3,82.3 82.3,46.2 				"/>
				
					<rect x="59.7" y="43.3" transform="matrix(0.7071 0.7071 -0.7071 0.7071 64.3114 -26.6386)" class="st1" width="9.2" height="42"/>
			</g>
		</g>
		<g>
			<g>
				<polygon class="st1" points="92.4,46.2 92.4,55.4 119.3,55.4 119.3,82.3 128.5,82.3 128.5,46.2 				"/>
				
					<rect x="105.9" y="43.3" transform="matrix(0.7071 0.7071 -0.7071 0.7071 77.8453 -59.3123)" class="st1" width="9.2" height="42"/>
			</g>
		</g>
		<g>
			<g>
				<polygon class="st1" points="138.6,46.2 138.6,55.4 165.5,55.4 165.5,82.3 174.7,82.3 174.7,46.2 				"/>
				
					<rect x="152.1" y="43.3" transform="matrix(0.7071 0.7071 -0.7071 0.7071 91.3792 -91.986)" class="st1" width="9.2" height="42"/>
			</g>
		</g>
		<g>
			<g>
				<polygon class="st1" points="184.8,46.2 184.8,55.4 211.8,55.4 211.8,82.3 220.9,82.3 220.9,46.2 				"/>
				
					<rect x="198.4" y="43.3" transform="matrix(0.7071 0.7071 -0.7071 0.7071 104.913 -124.6597)" class="st1" width="9.2" height="42"/>
			</g>
		</g>
		<g>
			<g>
				<polygon class="st1" points="231,46.2 231,55.4 258,55.4 258,82.3 267.2,82.3 267.2,46.2 				"/>
				
					<rect x="244.6" y="43.3" transform="matrix(0.7071 0.7071 -0.7071 0.7071 118.4469 -157.3334)" class="st1" width="9.2" height="42"/>
			</g>
		</g>
		<g>
			<g>
				<polygon class="st1" points="277.2,46.2 277.2,55.4 304.2,55.4 304.2,82.3 313.4,82.3 313.4,46.2 				"/>
				
					<rect x="290.8" y="43.3" transform="matrix(0.7071 0.7071 -0.7071 0.7071 131.9808 -190.0071)" class="st1" width="9.2" height="42"/>
			</g>
		</g>
		<g>
			<g>
				<polygon class="st1" points="323.5,46.2 323.5,55.4 350.4,55.4 350.4,82.3 359.6,82.3 359.6,46.2 				"/>
				
					<rect x="337" y="43.3" transform="matrix(0.7071 0.7071 -0.7071 0.7071 145.5147 -222.6808)" class="st1" width="9.2" height="42"/>
			</g>
		</g>
		<g>
			<g>
				<polygon class="st1" points="369.7,46.2 369.7,55.4 396.6,55.4 396.6,82.3 405.8,82.3 405.8,46.2 				"/>
				
					<rect x="383.2" y="43.3" transform="matrix(0.7071 0.7071 -0.7071 0.7071 159.0486 -255.3545)" class="st1" width="9.2" height="42"/>
			</g>
		</g>
		<g>
			<g>
				<polygon class="st1" points="415.9,46.2 415.9,55.4 442.8,55.4 442.8,82.3 452,82.3 452,46.2 				"/>
				
					<rect x="429.4" y="43.3" transform="matrix(0.7071 0.7071 -0.7071 0.7071 172.5825 -288.0282)" class="st1" width="9.2" height="42"/>
			</g>
		</g>
		<g>
			<g>
				<polygon class="st1" points="462.1,46.2 462.1,55.4 489,55.4 489,82.3 498.2,82.3 498.2,46.2 				"/>
				
					<rect x="475.6" y="43.3" transform="matrix(0.7071 0.7071 -0.7071 0.7071 186.1164 -320.7019)" class="st1" width="9.2" height="42"/>
			</g>
		</g>
		<g>
			<g>
				<polygon class="st1" points="508.3,46.2 508.3,55.4 535.2,55.4 535.2,82.3 544.4,82.3 544.4,46.2 				"/>
				
					<rect x="521.8" y="43.3" transform="matrix(0.7071 0.7071 -0.7071 0.7071 199.6503 -353.3756)" class="st1" width="9.2" height="42"/>
			</g>
		</g>
		<g>
			<g>
				<polygon class="st1" points="554.5,46.2 554.5,55.4 581.4,55.4 581.4,82.3 590.6,82.3 590.6,46.2 				"/>
				
					<rect x="568" y="43.3" transform="matrix(0.7071 0.7071 -0.7071 0.7071 213.1842 -386.0493)" class="st1" width="9.2" height="42"/>
			</g>
		</g>
		<g>
			<g>
				<polygon class="st1" points="600.7,46.2 600.7,55.4 627.6,55.4 627.6,82.3 636.8,82.3 636.8,46.2 				"/>
				
					<rect x="614.2" y="43.3" transform="matrix(0.7071 0.7071 -0.7071 0.7071 226.718 -418.723)" class="st1" width="9.2" height="42"/>
			</g>
		</g>
		<g>
			<g>
				<polygon class="st1" points="646.9,46.2 646.9,55.4 673.8,55.4 673.8,82.3 683,82.3 683,46.2 				"/>
				
					<rect x="660.4" y="43.3" transform="matrix(0.7071 0.7071 -0.7071 0.7071 240.2519 -451.3967)" class="st1" width="9.2" height="42"/>
			</g>
		</g>
		<g>
			<g>
				<polygon class="st1" points="693.1,46.2 693.1,55.4 720,55.4 720,82.3 729.2,82.3 729.2,46.2 				"/>
				
					<rect x="706.6" y="43.3" transform="matrix(0.7071 0.7071 -0.7071 0.7071 253.7858 -484.0704)" class="st1" width="9.2" height="42"/>
			</g>
		</g>
		<g>
			<g>
				<polygon class="st1" points="739.3,46.2 739.3,55.4 766.2,55.4 766.2,82.3 775.4,82.3 775.4,46.2 				"/>
				
					<rect x="752.8" y="43.3" transform="matrix(0.7071 0.7071 -0.7071 0.7071 267.3197 -516.7441)" class="st1" width="9.2" height="42"/>
			</g>
		</g>
		<g>
			<g>
				<polygon class="st1" points="785.5,46.2 785.5,55.4 812.4,55.4 812.4,82.3 821.6,82.3 821.6,46.2 				"/>
				
					<rect x="799.1" y="43.3" transform="matrix(0.7071 0.7071 -0.7071 0.7071 280.8536 -549.4178)" class="st1" width="9.2" height="42"/>
			</g>
		</g>
		<g>
			<g>
				<polygon class="st1" points="0,92.4 0,101.6 26.9,101.6 26.9,128.5 36.1,128.5 36.1,92.4 				"/>
				
					<rect x="13.5" y="89.5" transform="matrix(0.7071 0.7071 -0.7071 0.7071 83.4512 19.5689)" class="st1" width="9.2" height="42"/>
			</g>
		</g>
		<g>
			<g>
				<polygon class="st1" points="46.2,92.4 46.2,101.6 73.1,101.6 73.1,128.5 82.3,128.5 82.3,92.4 				"/>
				
					<rect x="59.7" y="89.5" transform="matrix(0.7071 0.7071 -0.7071 0.7071 96.9851 -13.1048)" class="st1" width="9.2" height="42"/>
			</g>
		</g>
		<g>
			<g>
				<polygon class="st1" points="92.4,92.4 92.4,101.6 119.3,101.6 119.3,128.5 128.5,128.5 128.5,92.4 				"/>
				
					<rect x="105.9" y="89.5" transform="matrix(0.7071 0.7071 -0.7071 0.7071 110.519 -45.7785)" class="st1" width="9.2" height="42"/>
			</g>
		</g>
		<g>
			<g>
				<polygon class="st1" points="138.6,92.4 138.6,101.6 165.5,101.6 165.5,128.5 174.7,128.5 174.7,92.4 				"/>
				
					<rect x="152.1" y="89.5" transform="matrix(0.7071 0.7071 -0.7071 0.7071 124.0529 -78.4521)" class="st1" width="9.2" height="42"/>
			</g>
		</g>
		<g>
			<g>
				<polygon class="st1" points="184.8,92.4 184.8,101.6 211.8,101.6 211.8,128.5 220.9,128.5 220.9,92.4 				"/>
				
					<rect x="198.4" y="89.5" transform="matrix(0.7071 0.7071 -0.7071 0.7071 137.5867 -111.1259)" class="st1" width="9.2" height="42"/>
			</g>
		</g>
		<g>
			<g>
				<polygon class="st1" points="231,92.4 231,101.6 258,101.6 258,128.5 267.2,128.5 267.2,92.4 				"/>
				
					<rect x="244.6" y="89.5" transform="matrix(0.7071 0.7071 -0.7071 0.7071 151.1206 -143.7995)" class="st1" width="9.2" height="42"/>
			</g>
		</g>
		<g>
			<g>
				<polygon class="st1" points="277.2,92.4 277.2,101.6 304.2,101.6 304.2,128.5 313.4,128.5 313.4,92.4 				"/>
				
					<rect x="290.8" y="89.5" transform="matrix(0.7071 0.7071 -0.7071 0.7071 164.6545 -176.4732)" class="st1" width="9.2" height="42"/>
			</g>
		</g>
		<g>
			<g>
				<polygon class="st1" points="323.5,92.4 323.5,101.6 350.4,101.6 350.4,128.5 359.6,128.5 359.6,92.4 				"/>
				
					<rect x="337" y="89.5" transform="matrix(0.7071 0.7071 -0.7071 0.7071 178.1884 -209.1469)" class="st1" width="9.2" height="42"/>
			</g>
		</g>
		<g>
			<g>
				<polygon class="st1" points="369.7,92.4 369.7,101.6 396.6,101.6 396.6,128.5 405.8,128.5 405.8,92.4 				"/>
				
					<rect x="383.2" y="89.5" transform="matrix(0.7071 0.7071 -0.7071 0.7071 191.7223 -241.8206)" class="st1" width="9.2" height="42"/>
			</g>
		</g>
		<g>
			<g>
				<polygon class="st1" points="415.9,92.4 415.9,101.6 442.8,101.6 442.8,128.5 452,128.5 452,92.4 				"/>
				
					<rect x="429.4" y="89.5" transform="matrix(0.7071 0.7071 -0.7071 0.7071 205.2562 -274.4944)" class="st1" width="9.2" height="42"/>
			</g>
		</g>
		<g>
			<g>
				<polygon class="st1" points="462.1,92.4 462.1,101.6 489,101.6 489,128.5 498.2,128.5 498.2,92.4 				"/>
				
					<rect x="475.6" y="89.5" transform="matrix(0.7071 0.7071 -0.7071 0.7071 218.7901 -307.168)" class="st1" width="9.2" height="42"/>
			</g>
		</g>
		<g>
			<g>
				<polygon class="st1" points="508.3,92.4 508.3,101.6 535.2,101.6 535.2,128.5 544.4,128.5 544.4,92.4 				"/>
				
					<rect x="521.8" y="89.5" transform="matrix(0.7071 0.7071 -0.7071 0.7071 232.324 -339.8417)" class="st1" width="9.2" height="42"/>
			</g>
		</g>
		<g>
			<g>
				<polygon class="st1" points="554.5,92.4 554.5,101.6 581.4,101.6 581.4,128.5 590.6,128.5 590.6,92.4 				"/>
				
					<rect x="568" y="89.5" transform="matrix(0.7071 0.7071 -0.7071 0.7071 245.8578 -372.5154)" class="st1" width="9.2" height="42"/>
			</g>
		</g>
		<g>
			<g>
				<polygon class="st1" points="600.7,92.4 600.7,101.6 627.6,101.6 627.6,128.5 636.8,128.5 636.8,92.4 				"/>
				
					<rect x="614.2" y="89.5" transform="matrix(0.7071 0.7071 -0.7071 0.7071 259.3918 -405.1891)" class="st1" width="9.2" height="42"/>
			</g>
		</g>
		<g>
			<g>
				<polygon class="st1" points="646.9,92.4 646.9,101.6 673.8,101.6 673.8,128.5 683,128.5 683,92.4 				"/>
				
					<rect x="660.4" y="89.5" transform="matrix(0.7071 0.7071 -0.7071 0.7071 272.9256 -437.8628)" class="st1" width="9.2" height="42"/>
			</g>
		</g>
		<g>
			<g>
				<polygon class="st1" points="693.1,92.4 693.1,101.6 720,101.6 720,128.5 729.2,128.5 729.2,92.4 				"/>
				
					<rect x="706.6" y="89.5" transform="matrix(0.7071 0.7071 -0.7071 0.7071 286.4595 -470.5366)" class="st1" width="9.2" height="42"/>
			</g>
		</g>
		<g>
			<g>
				<polygon class="st1" points="739.3,92.4 739.3,101.6 766.2,101.6 766.2,128.5 775.4,128.5 775.4,92.4 				"/>
				
					<rect x="752.8" y="89.5" transform="matrix(0.7071 0.7071 -0.7071 0.7071 299.9934 -503.2102)" class="st1" width="9.2" height="42"/>
			</g>
		</g>
		<g>
			<g>
				<polygon class="st1" points="785.5,92.4 785.5,101.6 812.4,101.6 812.4,128.5 821.6,128.5 821.6,92.4 				"/>
				
					<rect x="799.1" y="89.5" transform="matrix(0.7071 0.7071 -0.7071 0.7071 313.5273 -535.8839)" class="st1" width="9.2" height="42"/>
			</g>
		</g>
		<g>
			<g>
				<polygon class="st1" points="0,138.6 0,147.8 26.9,147.8 26.9,174.7 36.1,174.7 36.1,138.6 				"/>
				
					<rect x="13.5" y="135.7" transform="matrix(0.7071 0.7071 -0.7071 0.7071 116.1249 33.1028)" class="st1" width="9.2" height="42"/>
			</g>
		</g>
		<g>
			<g>
				<polygon class="st1" points="46.2,138.6 46.2,147.8 73.1,147.8 73.1,174.7 82.3,174.7 82.3,138.6 				"/>
				
					<rect x="59.7" y="135.7" transform="matrix(0.7071 0.7071 -0.7071 0.7071 129.6588 0.4291)" class="st1" width="9.2" height="42"/>
			</g>
		</g>
		<g>
			<g>
				<polygon class="st1" points="92.4,138.6 92.4,147.8 119.3,147.8 119.3,174.7 128.5,174.7 128.5,138.6 				"/>
				
					<rect x="105.9" y="135.7" transform="matrix(0.7071 0.7071 -0.7071 0.7071 143.1927 -32.2446)" class="st1" width="9.2" height="42"/>
			</g>
		</g>
		<g>
			<g>
				<polygon class="st1" points="138.6,138.6 138.6,147.8 165.5,147.8 165.5,174.7 174.7,174.7 174.7,138.6 				"/>
				
					<rect x="152.1" y="135.7" transform="matrix(0.7071 0.7071 -0.7071 0.7071 156.7265 -64.9183)" class="st1" width="9.2" height="42"/>
			</g>
		</g>
		<g>
			<g>
				<polygon class="st1" points="184.8,138.6 184.8,147.8 211.8,147.8 211.8,174.7 220.9,174.7 220.9,138.6 				"/>
				
					<rect x="198.4" y="135.7" transform="matrix(0.7071 0.7071 -0.7071 0.7071 170.2604 -97.592)" class="st1" width="9.2" height="42"/>
			</g>
		</g>
		<g>
			<g>
				<polygon class="st1" points="231,138.6 231,147.8 258,147.8 258,174.7 267.2,174.7 267.2,138.6 				"/>
				
					<rect x="244.6" y="135.7" transform="matrix(0.7071 0.7071 -0.7071 0.7071 183.7943 -130.2657)" class="st1" width="9.2" height="42"/>
			</g>
		</g>
		<g>
			<g>
				<polygon class="st1" points="277.2,138.6 277.2,147.8 304.2,147.8 304.2,174.7 313.4,174.7 313.4,138.6 				"/>
				
					<rect x="290.8" y="135.7" transform="matrix(0.7071 0.7071 -0.7071 0.7071 197.3282 -162.9394)" class="st1" width="9.2" height="42"/>
			</g>
		</g>
		<g>
			<g>
				<polygon class="st1" points="323.5,138.6 323.5,147.8 350.4,147.8 350.4,174.7 359.6,174.7 359.6,138.6 				"/>
				
					<rect x="337" y="135.7" transform="matrix(0.7071 0.7071 -0.7071 0.7071 210.8621 -195.6131)" class="st1" width="9.2" height="42"/>
			</g>
		</g>
		<g>
			<g>
				<polygon class="st1" points="369.7,138.6 369.7,147.8 396.6,147.8 396.6,174.7 405.8,174.7 405.8,138.6 				"/>
				
					<rect x="383.2" y="135.7" transform="matrix(0.7071 0.7071 -0.7071 0.7071 224.396 -228.2868)" class="st1" width="9.2" height="42"/>
			</g>
		</g>
		<g>
			<g>
				<polygon class="st1" points="415.9,138.6 415.9,147.8 442.8,147.8 442.8,174.7 452,174.7 452,138.6 				"/>
				
					<rect x="429.4" y="135.7" transform="matrix(0.7071 0.7071 -0.7071 0.7071 237.9299 -260.9604)" class="st1" width="9.2" height="42"/>
			</g>
		</g>
		<g>
			<g>
				<polygon class="st1" points="462.1,138.6 462.1,147.8 489,147.8 489,174.7 498.2,174.7 498.2,138.6 				"/>
				
					<rect x="475.6" y="135.7" transform="matrix(0.7071 0.7071 -0.7071 0.7071 251.4638 -293.6342)" class="st1" width="9.2" height="42"/>
			</g>
		</g>
		<g>
			<g>
				<polygon class="st1" points="508.3,138.6 508.3,147.8 535.2,147.8 535.2,174.7 544.4,174.7 544.4,138.6 				"/>
				
					<rect x="521.8" y="135.7" transform="matrix(0.7071 0.7071 -0.7071 0.7071 264.9977 -326.3078)" class="st1" width="9.2" height="42"/>
			</g>
		</g>
		<g>
			<g>
				<polygon class="st1" points="554.5,138.6 554.5,147.8 581.4,147.8 581.4,174.7 590.6,174.7 590.6,138.6 				"/>
				
					<rect x="568" y="135.7" transform="matrix(0.7071 0.7071 -0.7071 0.7071 278.5316 -358.9815)" class="st1" width="9.2" height="42"/>
			</g>
		</g>
		<g>
			<g>
				<polygon class="st1" points="600.7,138.6 600.7,147.8 627.6,147.8 627.6,174.7 636.8,174.7 636.8,138.6 				"/>
				
					<rect x="614.2" y="135.7" transform="matrix(0.7071 0.7071 -0.7071 0.7071 292.0654 -391.6552)" class="st1" width="9.2" height="42"/>
			</g>
		</g>
		<g>
			<g>
				<polygon class="st1" points="646.9,138.6 646.9,147.8 673.8,147.8 673.8,174.7 683,174.7 683,138.6 				"/>
				
					<rect x="660.4" y="135.7" transform="matrix(0.7071 0.7071 -0.7071 0.7071 305.5993 -424.3289)" class="st1" width="9.2" height="42"/>
			</g>
		</g>
		<g>
			<g>
				<polygon class="st1" points="693.1,138.6 693.1,147.8 720,147.8 720,174.7 729.2,174.7 729.2,138.6 				"/>
				
					<rect x="706.6" y="135.7" transform="matrix(0.7071 0.7071 -0.7071 0.7071 319.1332 -457.0027)" class="st1" width="9.2" height="42"/>
			</g>
		</g>
		<g>
			<g>
				<polygon class="st1" points="739.3,138.6 739.3,147.8 766.2,147.8 766.2,174.7 775.4,174.7 775.4,138.6 				"/>
				
					<rect x="752.8" y="135.7" transform="matrix(0.7071 0.7071 -0.7071 0.7071 332.6671 -489.6764)" class="st1" width="9.2" height="42"/>
			</g>
		</g>
		<g>
			<g>
				<polygon class="st1" points="785.5,138.6 785.5,147.8 812.4,147.8 812.4,174.7 821.6,174.7 821.6,138.6 				"/>
				
					<rect x="799.1" y="135.7" transform="matrix(0.7071 0.7071 -0.7071 0.7071 346.201 -522.35)" class="st1" width="9.2" height="42"/>
			</g>
		</g>
		<g>
			<g>
				<polygon class="st1" points="0,184.8 0,194 26.9,194 26.9,220.9 36.1,220.9 36.1,184.8 				"/>
				
					<rect x="13.5" y="181.9" transform="matrix(0.7071 0.7071 -0.7071 0.7071 148.7986 46.6367)" class="st1" width="9.2" height="42"/>
			</g>
		</g>
		<g>
			<g>
				<polygon class="st1" points="46.2,184.8 46.2,194 73.1,194 73.1,220.9 82.3,220.9 82.3,184.8 				"/>
				
					<rect x="59.7" y="181.9" transform="matrix(0.7071 0.7071 -0.7071 0.7071 162.3325 13.963)" class="st1" width="9.2" height="42"/>
			</g>
		</g>
		<g>
			<g>
				<polygon class="st1" points="92.4,184.8 92.4,194 119.3,194 119.3,220.9 128.5,220.9 128.5,184.8 				"/>
				
					<rect x="105.9" y="181.9" transform="matrix(0.7071 0.7071 -0.7071 0.7071 175.8664 -18.7107)" class="st1" width="9.2" height="42"/>
			</g>
		</g>
		<g>
			<g>
				<polygon class="st1" points="138.6,184.8 138.6,194 165.5,194 165.5,220.9 174.7,220.9 174.7,184.8 				"/>
				
					<rect x="152.1" y="181.9" transform="matrix(0.7071 0.7071 -0.7071 0.7071 189.4003 -51.3844)" class="st1" width="9.2" height="42"/>
			</g>
		</g>
		<g>
			<g>
				<polygon class="st1" points="184.8,184.8 184.8,194 211.8,194 211.8,220.9 220.9,220.9 220.9,184.8 				"/>
				
					<rect x="198.4" y="181.9" transform="matrix(0.7071 0.7071 -0.7071 0.7071 202.9341 -84.0581)" class="st1" width="9.2" height="42"/>
			</g>
		</g>
		<g>
			<g>
				<polygon class="st1" points="231,184.8 231,194 258,194 258,220.9 267.2,220.9 267.2,184.8 				"/>
				
					<rect x="244.6" y="181.9" transform="matrix(0.7071 0.7071 -0.7071 0.7071 216.468 -116.7318)" class="st1" width="9.2" height="42"/>
			</g>
		</g>
		<g>
			<g>
				<polygon class="st1" points="277.2,184.8 277.2,194 304.2,194 304.2,220.9 313.4,220.9 313.4,184.8 				"/>
				
					<rect x="290.8" y="181.9" transform="matrix(0.7071 0.7071 -0.7071 0.7071 230.0019 -149.4055)" class="st1" width="9.2" height="42"/>
			</g>
		</g>
		<g>
			<g>
				<polygon class="st1" points="323.5,184.8 323.5,194 350.4,194 350.4,220.9 359.6,220.9 359.6,184.8 				"/>
				
					<rect x="337" y="181.9" transform="matrix(0.7071 0.7071 -0.7071 0.7071 243.5358 -182.0792)" class="st1" width="9.2" height="42"/>
			</g>
		</g>
		<g>
			<g>
				<polygon class="st1" points="369.7,184.8 369.7,194 396.6,194 396.6,220.9 405.8,220.9 405.8,184.8 				"/>
				
					<rect x="383.2" y="181.9" transform="matrix(0.7071 0.7071 -0.7071 0.7071 257.0697 -214.7529)" class="st1" width="9.2" height="42"/>
			</g>
		</g>
		<g>
			<g>
				<polygon class="st1" points="415.9,184.8 415.9,194 442.8,194 442.8,220.9 452,220.9 452,184.8 				"/>
				
					<rect x="429.4" y="181.9" transform="matrix(0.7071 0.7071 -0.7071 0.7071 270.6036 -247.4266)" class="st1" width="9.2" height="42"/>
			</g>
		</g>
		<g>
			<g>
				<polygon class="st1" points="462.1,184.8 462.1,194 489,194 489,220.9 498.2,220.9 498.2,184.8 				"/>
				
					<rect x="475.6" y="181.9" transform="matrix(0.7071 0.7071 -0.7071 0.7071 284.1375 -280.1003)" class="st1" width="9.2" height="42"/>
			</g>
		</g>
		<g>
			<g>
				<polygon class="st1" points="508.3,184.8 508.3,194 535.2,194 535.2,220.9 544.4,220.9 544.4,184.8 				"/>
				
					<rect x="521.8" y="181.9" transform="matrix(0.7071 0.7071 -0.7071 0.7071 297.6714 -312.774)" class="st1" width="9.2" height="42"/>
			</g>
		</g>
		<g>
			<g>
				<polygon class="st1" points="554.5,184.8 554.5,194 581.4,194 581.4,220.9 590.6,220.9 590.6,184.8 				"/>
				
					<rect x="568" y="181.9" transform="matrix(0.7071 0.7071 -0.7071 0.7071 311.2053 -345.4476)" class="st1" width="9.2" height="42"/>
			</g>
		</g>
		<g>
			<g>
				<polygon class="st1" points="600.7,184.8 600.7,194 627.6,194 627.6,220.9 636.8,220.9 636.8,184.8 				"/>
				
					<rect x="614.2" y="181.9" transform="matrix(0.7071 0.7071 -0.7071 0.7071 324.7391 -378.1213)" class="st1" width="9.2" height="42"/>
			</g>
		</g>
		<g>
			<g>
				<polygon class="st1" points="646.9,184.8 646.9,194 673.8,194 673.8,220.9 683,220.9 683,184.8 				"/>
				
					<rect x="660.4" y="181.9" transform="matrix(0.7071 0.7071 -0.7071 0.7071 338.273 -410.795)" class="st1" width="9.2" height="42"/>
			</g>
		</g>
		<g>
			<g>
				<polygon class="st1" points="693.1,184.8 693.1,194 720,194 720,220.9 729.2,220.9 729.2,184.8 				"/>
				
					<rect x="706.6" y="181.9" transform="matrix(0.7071 0.7071 -0.7071 0.7071 351.8069 -443.4688)" class="st1" width="9.2" height="42"/>
			</g>
		</g>
		<g>
			<g>
				<polygon class="st1" points="739.3,184.8 739.3,194 766.2,194 766.2,220.9 775.4,220.9 775.4,184.8 				"/>
				
					<rect x="752.8" y="181.9" transform="matrix(0.7071 0.7071 -0.7071 0.7071 365.3408 -476.1425)" class="st1" width="9.2" height="42"/>
			</g>
		</g>
		<g>
			<g>
				<polygon class="st1" points="785.5,184.8 785.5,194 812.4,194 812.4,220.9 821.6,220.9 821.6,184.8 				"/>
				
					<rect x="799.1" y="181.9" transform="matrix(0.7071 0.7071 -0.7071 0.7071 378.8747 -508.8162)" class="st1" width="9.2" height="42"/>
			</g>
		</g>
		<g>
			<g>
				<polygon class="st1" points="0,231 0,240.2 26.9,240.2 26.9,267.2 36.1,267.2 36.1,231 				"/>
				
					<rect x="13.5" y="228.1" transform="matrix(0.7071 0.7071 -0.7071 0.7071 181.4723 60.1706)" class="st1" width="9.2" height="42"/>
			</g>
		</g>
		<g>
			<g>
				<polygon class="st1" points="46.2,231 46.2,240.2 73.1,240.2 73.1,267.2 82.3,267.2 82.3,231 				"/>
				
					<rect x="59.7" y="228.1" transform="matrix(0.7071 0.7071 -0.7071 0.7071 195.0062 27.4969)" class="st1" width="9.2" height="42"/>
			</g>
		</g>
		<g>
			<g>
				<polygon class="st1" points="92.4,231 92.4,240.2 119.3,240.2 119.3,267.2 128.5,267.2 128.5,231 				"/>
				
					<rect x="105.9" y="228.1" transform="matrix(0.7071 0.7071 -0.7071 0.7071 208.5401 -5.1768)" class="st1" width="9.2" height="42"/>
			</g>
		</g>
		<g>
			<g>
				<polygon class="st1" points="138.6,231 138.6,240.2 165.5,240.2 165.5,267.2 174.7,267.2 174.7,231 				"/>
				
					<rect x="152.1" y="228.1" transform="matrix(0.7071 0.7071 -0.7071 0.7071 222.0739 -37.8505)" class="st1" width="9.2" height="42"/>
			</g>
		</g>
		<g>
			<g>
				<polygon class="st1" points="184.8,231 184.8,240.2 211.8,240.2 211.8,267.2 220.9,267.2 220.9,231 				"/>
				
					<rect x="198.4" y="228.1" transform="matrix(0.7071 0.7071 -0.7071 0.7071 235.6078 -70.5242)" class="st1" width="9.2" height="42"/>
			</g>
		</g>
		<g>
			<g>
				<polygon class="st1" points="231,231 231,240.2 258,240.2 258,267.2 267.2,267.2 267.2,231 				"/>
				
					<rect x="244.6" y="228.1" transform="matrix(0.7071 0.7071 -0.7071 0.7071 249.1417 -103.1979)" class="st1" width="9.2" height="42"/>
			</g>
		</g>
		<g>
			<g>
				<polygon class="st1" points="277.2,231 277.2,240.2 304.2,240.2 304.2,267.2 313.4,267.2 313.4,231 				"/>
				
					<rect x="290.8" y="228.1" transform="matrix(0.7071 0.7071 -0.7071 0.7071 262.6756 -135.8716)" class="st1" width="9.2" height="42"/>
			</g>
		</g>
		<g>
			<g>
				<polygon class="st1" points="323.5,231 323.5,240.2 350.4,240.2 350.4,267.2 359.6,267.2 359.6,231 				"/>
				
					<rect x="337" y="228.1" transform="matrix(0.7071 0.7071 -0.7071 0.7071 276.2095 -168.5453)" class="st1" width="9.2" height="42"/>
			</g>
		</g>
		<g>
			<g>
				<polygon class="st1" points="369.7,231 369.7,240.2 396.6,240.2 396.6,267.2 405.8,267.2 405.8,231 				"/>
				
					<rect x="383.2" y="228.1" transform="matrix(0.7071 0.7071 -0.7071 0.7071 289.7434 -201.219)" class="st1" width="9.2" height="42"/>
			</g>
		</g>
		<g>
			<g>
				<polygon class="st1" points="415.9,231 415.9,240.2 442.8,240.2 442.8,267.2 452,267.2 452,231 				"/>
				
					<rect x="429.4" y="228.1" transform="matrix(0.7071 0.7071 -0.7071 0.7071 303.2773 -233.8927)" class="st1" width="9.2" height="42"/>
			</g>
		</g>
		<g>
			<g>
				<polygon class="st1" points="462.1,231 462.1,240.2 489,240.2 489,267.2 498.2,267.2 498.2,231 				"/>
				
					<rect x="475.6" y="228.1" transform="matrix(0.7071 0.7071 -0.7071 0.7071 316.8112 -266.5664)" class="st1" width="9.2" height="42"/>
			</g>
		</g>
		<g>
			<g>
				<polygon class="st1" points="508.3,231 508.3,240.2 535.2,240.2 535.2,267.2 544.4,267.2 544.4,231 				"/>
				
					<rect x="521.8" y="228.1" transform="matrix(0.7071 0.7071 -0.7071 0.7071 330.3451 -299.2401)" class="st1" width="9.2" height="42"/>
			</g>
		</g>
		<g>
			<g>
				<polygon class="st1" points="554.5,231 554.5,240.2 581.4,240.2 581.4,267.2 590.6,267.2 590.6,231 				"/>
				
					<rect x="568" y="228.1" transform="matrix(0.7071 0.7071 -0.7071 0.7071 343.8789 -331.9138)" class="st1" width="9.2" height="42"/>
			</g>
		</g>
		<g>
			<g>
				<polygon class="st1" points="600.7,231 600.7,240.2 627.6,240.2 627.6,267.2 636.8,267.2 636.8,231 				"/>
				
					<rect x="614.2" y="228.1" transform="matrix(0.7071 0.7071 -0.7071 0.7071 357.4128 -364.5875)" class="st1" width="9.2" height="42"/>
			</g>
		</g>
		<g>
			<g>
				<polygon class="st1" points="646.9,231 646.9,240.2 673.8,240.2 673.8,267.2 683,267.2 683,231 				"/>
				
					<rect x="660.4" y="228.1" transform="matrix(0.7071 0.7071 -0.7071 0.7071 370.9467 -397.2611)" class="st1" width="9.2" height="42"/>
			</g>
		</g>
		<g>
			<g>
				<polygon class="st1" points="693.1,231 693.1,240.2 720,240.2 720,267.2 729.2,267.2 729.2,231 				"/>
				
					<rect x="706.6" y="228.1" transform="matrix(0.7071 0.7071 -0.7071 0.7071 384.4806 -429.9349)" class="st1" width="9.2" height="42"/>
			</g>
		</g>
		<g>
			<g>
				<polygon class="st1" points="739.3,231 739.3,240.2 766.2,240.2 766.2,267.2 775.4,267.2 775.4,231 				"/>
				
					<rect x="752.8" y="228.1" transform="matrix(0.7071 0.7071 -0.7071 0.7071 398.0145 -462.6086)" class="st1" width="9.2" height="42"/>
			</g>
		</g>
		<g>
			<g>
				<polygon class="st1" points="785.5,231 785.5,240.2 812.4,240.2 812.4,267.2 821.6,267.2 821.6,231 				"/>
				
					<rect x="799.1" y="228.1" transform="matrix(0.7071 0.7071 -0.7071 0.7071 411.5484 -495.2823)" class="st1" width="9.2" height="42"/>
			</g>
		</g>
		<g>
			<g>
				<polygon class="st1" points="0,277.2 0,286.4 26.9,286.4 26.9,313.4 36.1,313.4 36.1,277.2 				"/>
				
					<rect x="13.5" y="274.3" transform="matrix(0.7071 0.7071 -0.7071 0.7071 214.146 73.7045)" class="st1" width="9.2" height="42"/>
			</g>
		</g>
		<g>
			<g>
				<polygon class="st1" points="46.2,277.2 46.2,286.4 73.1,286.4 73.1,313.4 82.3,313.4 82.3,277.2 				"/>
				
					<rect x="59.7" y="274.3" transform="matrix(0.7071 0.7071 -0.7071 0.7071 227.6799 41.0308)" class="st1" width="9.2" height="42"/>
			</g>
		</g>
		<g>
			<g>
				<polygon class="st1" points="92.4,277.2 92.4,286.4 119.3,286.4 119.3,313.4 128.5,313.4 128.5,277.2 				"/>
				
					<rect x="105.9" y="274.3" transform="matrix(0.7071 0.7071 -0.7071 0.7071 241.2138 8.3571)" class="st1" width="9.2" height="42"/>
			</g>
		</g>
		<g>
			<g>
				<polygon class="st1" points="138.6,277.2 138.6,286.4 165.5,286.4 165.5,313.4 174.7,313.4 174.7,277.2 				"/>
				
					<rect x="152.1" y="274.3" transform="matrix(0.7071 0.7071 -0.7071 0.7071 254.7476 -24.3166)" class="st1" width="9.2" height="42"/>
			</g>
		</g>
		<g>
			<g>
				<polygon class="st1" points="184.8,277.2 184.8,286.4 211.8,286.4 211.8,313.4 220.9,313.4 220.9,277.2 				"/>
				
					<rect x="198.4" y="274.3" transform="matrix(0.7071 0.7071 -0.7071 0.7071 268.2815 -56.9903)" class="st1" width="9.2" height="42"/>
			</g>
		</g>
		<g>
			<g>
				<polygon class="st1" points="231,277.2 231,286.4 258,286.4 258,313.4 267.2,313.4 267.2,277.2 				"/>
				
					<rect x="244.6" y="274.3" transform="matrix(0.7071 0.7071 -0.7071 0.7071 281.8154 -89.664)" class="st1" width="9.2" height="42"/>
			</g>
		</g>
		<g>
			<g>
				<polygon class="st1" points="277.2,277.2 277.2,286.4 304.2,286.4 304.2,313.4 313.4,313.4 313.4,277.2 				"/>
				
					<rect x="290.8" y="274.3" transform="matrix(0.7071 0.7071 -0.7071 0.7071 295.3493 -122.3377)" class="st1" width="9.2" height="42"/>
			</g>
		</g>
		<g>
			<g>
				<polygon class="st1" points="323.5,277.2 323.5,286.4 350.4,286.4 350.4,313.4 359.6,313.4 359.6,277.2 				"/>
				
					<rect x="337" y="274.3" transform="matrix(0.7071 0.7071 -0.7071 0.7071 308.8832 -155.0114)" class="st1" width="9.2" height="42"/>
			</g>
		</g>
		<g>
			<g>
				<polygon class="st1" points="369.7,277.2 369.7,286.4 396.6,286.4 396.6,313.4 405.8,313.4 405.8,277.2 				"/>
				
					<rect x="383.2" y="274.3" transform="matrix(0.7071 0.7071 -0.7071 0.7071 322.4171 -187.6851)" class="st1" width="9.2" height="42"/>
			</g>
		</g>
		<g>
			<g>
				<polygon class="st1" points="415.9,277.2 415.9,286.4 442.8,286.4 442.8,313.4 452,313.4 452,277.2 				"/>
				
					<rect x="429.4" y="274.3" transform="matrix(0.7071 0.7071 -0.7071 0.7071 335.951 -220.3588)" class="st1" width="9.2" height="42"/>
			</g>
		</g>
		<g>
			<g>
				<polygon class="st1" points="462.1,277.2 462.1,286.4 489,286.4 489,313.4 498.2,313.4 498.2,277.2 				"/>
				
					<rect x="475.6" y="274.3" transform="matrix(0.7071 0.7071 -0.7071 0.7071 349.4849 -253.0325)" class="st1" width="9.2" height="42"/>
			</g>
		</g>
		<g>
			<g>
				<polygon class="st1" points="508.3,277.2 508.3,286.4 535.2,286.4 535.2,313.4 544.4,313.4 544.4,277.2 				"/>
				
					<rect x="521.8" y="274.3" transform="matrix(0.7071 0.7071 -0.7071 0.7071 363.0187 -285.7062)" class="st1" width="9.2" height="42"/>
			</g>
		</g>
		<g>
			<g>
				<polygon class="st1" points="554.5,277.2 554.5,286.4 581.4,286.4 581.4,313.4 590.6,313.4 590.6,277.2 				"/>
				
					<rect x="568" y="274.3" transform="matrix(0.7071 0.7071 -0.7071 0.7071 376.5526 -318.3799)" class="st1" width="9.2" height="42"/>
			</g>
		</g>
		<g>
			<g>
				<polygon class="st1" points="600.7,277.2 600.7,286.4 627.6,286.4 627.6,313.4 636.8,313.4 636.8,277.2 				"/>
				
					<rect x="614.2" y="274.3" transform="matrix(0.7071 0.7071 -0.7071 0.7071 390.0865 -351.0536)" class="st1" width="9.2" height="42"/>
			</g>
		</g>
		<g>
			<g>
				<polygon class="st1" points="646.9,277.2 646.9,286.4 673.8,286.4 673.8,313.4 683,313.4 683,277.2 				"/>
				
					<rect x="660.4" y="274.3" transform="matrix(0.7071 0.7071 -0.7071 0.7071 403.6204 -383.7273)" class="st1" width="9.2" height="42"/>
			</g>
		</g>
		<g>
			<g>
				<polygon class="st1" points="693.1,277.2 693.1,286.4 720,286.4 720,313.4 729.2,313.4 729.2,277.2 				"/>
				
					<rect x="706.6" y="274.3" transform="matrix(0.7071 0.7071 -0.7071 0.7071 417.1543 -416.401)" class="st1" width="9.2" height="42"/>
			</g>
		</g>
		<g>
			<g>
				<polygon class="st1" points="739.3,277.2 739.3,286.4 766.2,286.4 766.2,313.4 775.4,313.4 775.4,277.2 				"/>
				
					<rect x="752.8" y="274.3" transform="matrix(0.7071 0.7071 -0.7071 0.7071 430.6882 -449.0747)" class="st1" width="9.2" height="42"/>
			</g>
		</g>
		<g>
			<g>
				<polygon class="st1" points="785.5,277.2 785.5,286.4 812.4,286.4 812.4,313.4 821.6,313.4 821.6,277.2 				"/>
				
					<rect x="799.1" y="274.3" transform="matrix(0.7071 0.7071 -0.7071 0.7071 444.2221 -481.7484)" class="st1" width="9.2" height="42"/>
			</g>
		</g>
		<g>
			<g>
				<polygon class="st1" points="0,323.5 0,332.6 26.9,332.6 26.9,359.6 36.1,359.6 36.1,323.5 				"/>
				
					<rect x="13.5" y="320.5" transform="matrix(0.7071 0.7071 -0.7071 0.7071 246.8197 87.2384)" class="st1" width="9.2" height="42"/>
			</g>
		</g>
		<g>
			<g>
				<polygon class="st1" points="46.2,323.5 46.2,332.6 73.1,332.6 73.1,359.6 82.3,359.6 82.3,323.5 				"/>
				
					<rect x="59.7" y="320.5" transform="matrix(0.7071 0.7071 -0.7071 0.7071 260.3535 54.5647)" class="st1" width="9.2" height="42"/>
			</g>
		</g>
		<g>
			<g>
				<polygon class="st1" points="92.4,323.5 92.4,332.6 119.3,332.6 119.3,359.6 128.5,359.6 128.5,323.5 				"/>
				
					<rect x="105.9" y="320.5" transform="matrix(0.7071 0.7071 -0.7071 0.7071 273.8875 21.891)" class="st1" width="9.2" height="42"/>
			</g>
		</g>
		<g>
			<g>
				<polygon class="st1" points="138.6,323.5 138.6,332.6 165.5,332.6 165.5,359.6 174.7,359.6 174.7,323.5 				"/>
				
					<rect x="152.1" y="320.5" transform="matrix(0.7071 0.7071 -0.7071 0.7071 287.4213 -10.7827)" class="st1" width="9.2" height="42"/>
			</g>
		</g>
		<g>
			<g>
				<polygon class="st1" points="184.8,323.5 184.8,332.6 211.8,332.6 211.8,359.6 220.9,359.6 220.9,323.5 				"/>
				
					<rect x="198.4" y="320.5" transform="matrix(0.7071 0.7071 -0.7071 0.7071 300.9552 -43.4564)" class="st1" width="9.2" height="42"/>
			</g>
		</g>
		<g>
			<g>
				<polygon class="st1" points="231,323.5 231,332.6 258,332.6 258,359.6 267.2,359.6 267.2,323.5 				"/>
				
					<rect x="244.6" y="320.5" transform="matrix(0.7071 0.7071 -0.7071 0.7071 314.4891 -76.1301)" class="st1" width="9.2" height="42"/>
			</g>
		</g>
		<g>
			<g>
				<polygon class="st1" points="277.2,323.5 277.2,332.6 304.2,332.6 304.2,359.6 313.4,359.6 313.4,323.5 				"/>
				
					<rect x="290.8" y="320.5" transform="matrix(0.7071 0.7071 -0.7071 0.7071 328.023 -108.8038)" class="st1" width="9.2" height="42"/>
			</g>
		</g>
		<g>
			<g>
				<polygon class="st1" points="323.5,323.5 323.5,332.6 350.4,332.6 350.4,359.6 359.6,359.6 359.6,323.5 				"/>
				
					<rect x="337" y="320.5" transform="matrix(0.7071 0.7071 -0.7071 0.7071 341.5569 -141.4775)" class="st1" width="9.2" height="42"/>
			</g>
		</g>
		<g>
			<g>
				<polygon class="st1" points="369.7,323.5 369.7,332.6 396.6,332.6 396.6,359.6 405.8,359.6 405.8,323.5 				"/>
				
					<rect x="383.2" y="320.5" transform="matrix(0.7071 0.7071 -0.7071 0.7071 355.0908 -174.1512)" class="st1" width="9.2" height="42"/>
			</g>
		</g>
		<g>
			<g>
				<polygon class="st1" points="415.9,323.5 415.9,332.6 442.8,332.6 442.8,359.6 452,359.6 452,323.5 				"/>
				
					<rect x="429.4" y="320.5" transform="matrix(0.7071 0.7071 -0.7071 0.7071 368.6247 -206.8249)" class="st1" width="9.2" height="42"/>
			</g>
		</g>
		<g>
			<g>
				<polygon class="st1" points="462.1,323.5 462.1,332.6 489,332.6 489,359.6 498.2,359.6 498.2,323.5 				"/>
				
					<rect x="475.6" y="320.5" transform="matrix(0.7071 0.7071 -0.7071 0.7071 382.1586 -239.4986)" class="st1" width="9.2" height="42"/>
			</g>
		</g>
		<g>
			<g>
				<polygon class="st1" points="508.3,323.5 508.3,332.6 535.2,332.6 535.2,359.6 544.4,359.6 544.4,323.5 				"/>
				
					<rect x="521.8" y="320.5" transform="matrix(0.7071 0.7071 -0.7071 0.7071 395.6924 -272.1723)" class="st1" width="9.2" height="42"/>
			</g>
		</g>
		<g>
			<g>
				<polygon class="st1" points="554.5,323.5 554.5,332.6 581.4,332.6 581.4,359.6 590.6,359.6 590.6,323.5 				"/>
				
					<rect x="568" y="320.5" transform="matrix(0.7071 0.7071 -0.7071 0.7071 409.2263 -304.846)" class="st1" width="9.2" height="42"/>
			</g>
		</g>
		<g>
			<g>
				<polygon class="st1" points="600.7,323.5 600.7,332.6 627.6,332.6 627.6,359.6 636.8,359.6 636.8,323.5 				"/>
				
					<rect x="614.2" y="320.5" transform="matrix(0.7071 0.7071 -0.7071 0.7071 422.7602 -337.5197)" class="st1" width="9.2" height="42"/>
			</g>
		</g>
		<g>
			<g>
				<polygon class="st1" points="646.9,323.5 646.9,332.6 673.8,332.6 673.8,359.6 683,359.6 683,323.5 				"/>
				
					<rect x="660.4" y="320.5" transform="matrix(0.7071 0.7071 -0.7071 0.7071 436.2941 -370.1934)" class="st1" width="9.2" height="42"/>
			</g>
		</g>
		<g>
			<g>
				<polygon class="st1" points="693.1,323.5 693.1,332.6 720,332.6 720,359.6 729.2,359.6 729.2,323.5 				"/>
				
					<rect x="706.6" y="320.5" transform="matrix(0.7071 0.7071 -0.7071 0.7071 449.828 -402.8671)" class="st1" width="9.2" height="42"/>
			</g>
		</g>
		<g>
			<g>
				<polygon class="st1" points="739.3,323.5 739.3,332.6 766.2,332.6 766.2,359.6 775.4,359.6 775.4,323.5 				"/>
				
					<rect x="752.8" y="320.5" transform="matrix(0.7071 0.7071 -0.7071 0.7071 463.3619 -435.5408)" class="st1" width="9.2" height="42"/>
			</g>
		</g>
		<g>
			<g>
				<polygon class="st1" points="785.5,323.5 785.5,332.6 812.4,332.6 812.4,359.6 821.6,359.6 821.6,323.5 				"/>
				
					<rect x="799.1" y="320.5" transform="matrix(0.7071 0.7071 -0.7071 0.7071 476.8958 -468.2145)" class="st1" width="9.2" height="42"/>
			</g>
		</g>
		<g>
			<g>
				<polygon class="st1" points="0,369.7 0,378.9 26.9,378.9 26.9,405.8 36.1,405.8 36.1,369.7 				"/>
				
					<rect x="13.5" y="366.7" transform="matrix(0.7071 0.7071 -0.7071 0.7071 279.4934 100.7723)" class="st1" width="9.2" height="42"/>
			</g>
		</g>
		<g>
			<g>
				<polygon class="st1" points="46.2,369.7 46.2,378.9 73.1,378.9 73.1,405.8 82.3,405.8 82.3,369.7 				"/>
				
					<rect x="59.7" y="366.7" transform="matrix(0.7071 0.7071 -0.7071 0.7071 293.0273 68.0986)" class="st1" width="9.2" height="42"/>
			</g>
		</g>
		<g>
			<g>
				<polygon class="st1" points="92.4,369.7 92.4,378.9 119.3,378.9 119.3,405.8 128.5,405.8 128.5,369.7 				"/>
				
					<rect x="105.9" y="366.7" transform="matrix(0.7071 0.7071 -0.7071 0.7071 306.5612 35.4249)" class="st1" width="9.2" height="42"/>
			</g>
		</g>
		<g>
			<g>
				<polygon class="st1" points="138.6,369.7 138.6,378.9 165.5,378.9 165.5,405.8 174.7,405.8 174.7,369.7 				"/>
				
					<rect x="152.1" y="366.7" transform="matrix(0.7071 0.7071 -0.7071 0.7071 320.0951 2.7512)" class="st1" width="9.2" height="42"/>
			</g>
		</g>
		<g>
			<g>
				<polygon class="st1" points="184.8,369.7 184.8,378.9 211.8,378.9 211.8,405.8 220.9,405.8 220.9,369.7 				"/>
				
					<rect x="198.4" y="366.7" transform="matrix(0.7071 0.7071 -0.7071 0.7071 333.6289 -29.9225)" class="st1" width="9.2" height="42"/>
			</g>
		</g>
		<g>
			<g>
				<polygon class="st1" points="231,369.7 231,378.9 258,378.9 258,405.8 267.2,405.8 267.2,369.7 				"/>
				
					<rect x="244.6" y="366.7" transform="matrix(0.7071 0.7071 -0.7071 0.7071 347.1628 -62.5962)" class="st1" width="9.2" height="42"/>
			</g>
		</g>
		<g>
			<g>
				<polygon class="st1" points="277.2,369.7 277.2,378.9 304.2,378.9 304.2,405.8 313.4,405.8 313.4,369.7 				"/>
				
					<rect x="290.8" y="366.7" transform="matrix(0.7071 0.7071 -0.7071 0.7071 360.6967 -95.2699)" class="st1" width="9.2" height="42"/>
			</g>
		</g>
		<g>
			<g>
				<polygon class="st1" points="323.5,369.7 323.5,378.9 350.4,378.9 350.4,405.8 359.6,405.8 359.6,369.7 				"/>
				
					<rect x="337" y="366.7" transform="matrix(0.7071 0.7071 -0.7071 0.7071 374.2306 -127.9436)" class="st1" width="9.2" height="42"/>
			</g>
		</g>
		<g>
			<g>
				<polygon class="st1" points="369.7,369.7 369.7,378.9 396.6,378.9 396.6,405.8 405.8,405.8 405.8,369.7 				"/>
				
					<rect x="383.2" y="366.7" transform="matrix(0.7071 0.7071 -0.7071 0.7071 387.7645 -160.6173)" class="st1" width="9.2" height="42"/>
			</g>
		</g>
		<g>
			<g>
				<polygon class="st1" points="415.9,369.7 415.9,378.9 442.8,378.9 442.8,405.8 452,405.8 452,369.7 				"/>
				
					<rect x="429.4" y="366.7" transform="matrix(0.7071 0.7071 -0.7071 0.7071 401.2984 -193.291)" class="st1" width="9.2" height="42"/>
			</g>
		</g>
		<g>
			<g>
				<polygon class="st1" points="462.1,369.7 462.1,378.9 489,378.9 489,405.8 498.2,405.8 498.2,369.7 				"/>
				
					<rect x="475.6" y="366.7" transform="matrix(0.7071 0.7071 -0.7071 0.7071 414.8323 -225.9647)" class="st1" width="9.2" height="42"/>
			</g>
		</g>
		<g>
			<g>
				<polygon class="st1" points="508.3,369.7 508.3,378.9 535.2,378.9 535.2,405.8 544.4,405.8 544.4,369.7 				"/>
				
					<rect x="521.8" y="366.7" transform="matrix(0.7071 0.7071 -0.7071 0.7071 428.3661 -258.6384)" class="st1" width="9.2" height="42"/>
			</g>
		</g>
		<g>
			<g>
				<polygon class="st1" points="554.5,369.7 554.5,378.9 581.4,378.9 581.4,405.8 590.6,405.8 590.6,369.7 				"/>
				
					<rect x="568" y="366.7" transform="matrix(0.7071 0.7071 -0.7071 0.7071 441.9001 -291.3121)" class="st1" width="9.2" height="42"/>
			</g>
		</g>
		<g>
			<g>
				<polygon class="st1" points="600.7,369.7 600.7,378.9 627.6,378.9 627.6,405.8 636.8,405.8 636.8,369.7 				"/>
				
					<rect x="614.2" y="366.7" transform="matrix(0.7071 0.7071 -0.7071 0.7071 455.4339 -323.9858)" class="st1" width="9.2" height="42"/>
			</g>
		</g>
		<g>
			<g>
				<polygon class="st1" points="646.9,369.7 646.9,378.9 673.8,378.9 673.8,405.8 683,405.8 683,369.7 				"/>
				
					<rect x="660.4" y="366.7" transform="matrix(0.7071 0.7071 -0.7071 0.7071 468.9678 -356.6595)" class="st1" width="9.2" height="42"/>
			</g>
		</g>
		<g>
			<g>
				<polygon class="st1" points="693.1,369.7 693.1,378.9 720,378.9 720,405.8 729.2,405.8 729.2,369.7 				"/>
				
					<rect x="706.6" y="366.7" transform="matrix(0.7071 0.7071 -0.7071 0.7071 482.5017 -389.3332)" class="st1" width="9.2" height="42"/>
			</g>
		</g>
		<g>
			<g>
				<polygon class="st1" points="739.3,369.7 739.3,378.9 766.2,378.9 766.2,405.8 775.4,405.8 775.4,369.7 				"/>
				
					<rect x="752.8" y="366.7" transform="matrix(0.7071 0.7071 -0.7071 0.7071 496.0356 -422.0069)" class="st1" width="9.2" height="42"/>
			</g>
		</g>
		<g>
			<g>
				<polygon class="st1" points="785.5,369.7 785.5,378.9 812.4,378.9 812.4,405.8 821.6,405.8 821.6,369.7 				"/>
				
					<rect x="799.1" y="366.7" transform="matrix(0.7071 0.7071 -0.7071 0.7071 509.5695 -454.6806)" class="st1" width="9.2" height="42"/>
			</g>
		</g>
		<g>
			<g>
				<polygon class="st1" points="0,415.9 0,425.1 26.9,425.1 26.9,452 36.1,452 36.1,415.9 				"/>
				
					<rect x="13.5" y="412.9" transform="matrix(0.7071 0.7071 -0.7071 0.7071 312.1671 114.3062)" class="st1" width="9.2" height="42"/>
			</g>
		</g>
		<g>
			<g>
				<polygon class="st1" points="46.2,415.9 46.2,425.1 73.1,425.1 73.1,452 82.3,452 82.3,415.9 				"/>
				
					<rect x="59.7" y="412.9" transform="matrix(0.7071 0.7071 -0.7071 0.7071 325.701 81.6325)" class="st1" width="9.2" height="42"/>
			</g>
		</g>
		<g>
			<g>
				<polygon class="st1" points="92.4,415.9 92.4,425.1 119.3,425.1 119.3,452 128.5,452 128.5,415.9 				"/>
				
					<rect x="105.9" y="412.9" transform="matrix(0.7071 0.7071 -0.7071 0.7071 339.2349 48.9588)" class="st1" width="9.2" height="42"/>
			</g>
		</g>
		<g>
			<g>
				<polygon class="st1" points="138.6,415.9 138.6,425.1 165.5,425.1 165.5,452 174.7,452 174.7,415.9 				"/>
				
					<rect x="152.1" y="412.9" transform="matrix(0.7071 0.7071 -0.7071 0.7071 352.7687 16.2851)" class="st1" width="9.2" height="42"/>
			</g>
		</g>
		<g>
			<g>
				<polygon class="st1" points="184.8,415.9 184.8,425.1 211.8,425.1 211.8,452 220.9,452 220.9,415.9 				"/>
				
					<rect x="198.4" y="412.9" transform="matrix(0.7071 0.7071 -0.7071 0.7071 366.3026 -16.3886)" class="st1" width="9.2" height="42"/>
			</g>
		</g>
		<g>
			<g>
				<polygon class="st1" points="231,415.9 231,425.1 258,425.1 258,452 267.2,452 267.2,415.9 				"/>
				
					<rect x="244.6" y="412.9" transform="matrix(0.7071 0.7071 -0.7071 0.7071 379.8365 -49.0623)" class="st1" width="9.2" height="42"/>
			</g>
		</g>
		<g>
			<g>
				<polygon class="st1" points="277.2,415.9 277.2,425.1 304.2,425.1 304.2,452 313.4,452 313.4,415.9 				"/>
				
					<rect x="290.8" y="412.9" transform="matrix(0.7071 0.7071 -0.7071 0.7071 393.3704 -81.736)" class="st1" width="9.2" height="42"/>
			</g>
		</g>
		<g>
			<g>
				<polygon class="st1" points="323.5,415.9 323.5,425.1 350.4,425.1 350.4,452 359.6,452 359.6,415.9 				"/>
				
					<rect x="337" y="412.9" transform="matrix(0.7071 0.7071 -0.7071 0.7071 406.9043 -114.4097)" class="st1" width="9.2" height="42"/>
			</g>
		</g>
		<g>
			<g>
				<polygon class="st1" points="369.7,415.9 369.7,425.1 396.6,425.1 396.6,452 405.8,452 405.8,415.9 				"/>
				
					<rect x="383.2" y="412.9" transform="matrix(0.7071 0.7071 -0.7071 0.7071 420.4382 -147.0834)" class="st1" width="9.2" height="42"/>
			</g>
		</g>
		<g>
			<g>
				<polygon class="st1" points="415.9,415.9 415.9,425.1 442.8,425.1 442.8,452 452,452 452,415.9 				"/>
				
					<rect x="429.4" y="412.9" transform="matrix(0.7071 0.7071 -0.7071 0.7071 433.9721 -179.7571)" class="st1" width="9.2" height="42"/>
			</g>
		</g>
		<g>
			<g>
				<polygon class="st1" points="462.1,415.9 462.1,425.1 489,425.1 489,452 498.2,452 498.2,415.9 				"/>
				
					<rect x="475.6" y="412.9" transform="matrix(0.7071 0.7071 -0.7071 0.7071 447.506 -212.4308)" class="st1" width="9.2" height="42"/>
			</g>
		</g>
		<g>
			<g>
				<polygon class="st1" points="508.3,415.9 508.3,425.1 535.2,425.1 535.2,452 544.4,452 544.4,415.9 				"/>
				
					<rect x="521.8" y="412.9" transform="matrix(0.7071 0.7071 -0.7071 0.7071 461.0399 -245.1045)" class="st1" width="9.2" height="42"/>
			</g>
		</g>
		<g>
			<g>
				<polygon class="st1" points="554.5,415.9 554.5,425.1 581.4,425.1 581.4,452 590.6,452 590.6,415.9 				"/>
				
					<rect x="568" y="412.9" transform="matrix(0.7071 0.7071 -0.7071 0.7071 474.5737 -277.7782)" class="st1" width="9.2" height="42"/>
			</g>
		</g>
		<g>
			<g>
				<polygon class="st1" points="600.7,415.9 600.7,425.1 627.6,425.1 627.6,452 636.8,452 636.8,415.9 				"/>
				
					<rect x="614.2" y="412.9" transform="matrix(0.7071 0.7071 -0.7071 0.7071 488.1076 -310.4519)" class="st1" width="9.2" height="42"/>
			</g>
		</g>
		<g>
			<g>
				<polygon class="st1" points="646.9,415.9 646.9,425.1 673.8,425.1 673.8,452 683,452 683,415.9 				"/>
				
					<rect x="660.4" y="412.9" transform="matrix(0.7071 0.7071 -0.7071 0.7071 501.6415 -343.1256)" class="st1" width="9.2" height="42"/>
			</g>
		</g>
		<g>
			<g>
				<polygon class="st1" points="693.1,415.9 693.1,425.1 720,425.1 720,452 729.2,452 729.2,415.9 				"/>
				
					<rect x="706.6" y="412.9" transform="matrix(0.7071 0.7071 -0.7071 0.7071 515.1754 -375.7993)" class="st1" width="9.2" height="42"/>
			</g>
		</g>
		<g>
			<g>
				<polygon class="st1" points="739.3,415.9 739.3,425.1 766.2,425.1 766.2,452 775.4,452 775.4,415.9 				"/>
				
					<rect x="752.8" y="412.9" transform="matrix(0.7071 0.7071 -0.7071 0.7071 528.7093 -408.473)" class="st1" width="9.2" height="42"/>
			</g>
		</g>
		<g>
			<g>
				<polygon class="st1" points="785.5,415.9 785.5,425.1 812.4,425.1 812.4,452 821.6,452 821.6,415.9 				"/>
				
					<rect x="799.1" y="412.9" transform="matrix(0.7071 0.7071 -0.7071 0.7071 542.2432 -441.1467)" class="st1" width="9.2" height="42"/>
			</g>
		</g>
		<g>
			<g>
				<polygon class="st1" points="0,462.1 0,471.3 26.9,471.3 26.9,498.2 36.1,498.2 36.1,462.1 				"/>
				
					<rect x="13.5" y="459.2" transform="matrix(0.7071 0.7071 -0.7071 0.7071 344.8408 127.84)" class="st1" width="9.2" height="42"/>
			</g>
		</g>
		<g>
			<g>
				<polygon class="st1" points="46.2,462.1 46.2,471.3 73.1,471.3 73.1,498.2 82.3,498.2 82.3,462.1 				"/>
				
					<rect x="59.7" y="459.2" transform="matrix(0.7071 0.7071 -0.7071 0.7071 358.3747 95.1664)" class="st1" width="9.2" height="42"/>
			</g>
		</g>
		<g>
			<g>
				<polygon class="st1" points="92.4,462.1 92.4,471.3 119.3,471.3 119.3,498.2 128.5,498.2 128.5,462.1 				"/>
				
					<rect x="105.9" y="459.2" transform="matrix(0.7071 0.7071 -0.7071 0.7071 371.9085 62.4927)" class="st1" width="9.2" height="42"/>
			</g>
		</g>
		<g>
			<g>
				<polygon class="st1" points="138.6,462.1 138.6,471.3 165.5,471.3 165.5,498.2 174.7,498.2 174.7,462.1 				"/>
				
					<rect x="152.1" y="459.2" transform="matrix(0.7071 0.7071 -0.7071 0.7071 385.4424 29.819)" class="st1" width="9.2" height="42"/>
			</g>
		</g>
		<g>
			<g>
				<polygon class="st1" points="184.8,462.1 184.8,471.3 211.8,471.3 211.8,498.2 220.9,498.2 220.9,462.1 				"/>
				
					<rect x="198.4" y="459.2" transform="matrix(0.7071 0.7071 -0.7071 0.7071 398.9763 -2.8547)" class="st1" width="9.2" height="42"/>
			</g>
		</g>
		<g>
			<g>
				<polygon class="st1" points="231,462.1 231,471.3 258,471.3 258,498.2 267.2,498.2 267.2,462.1 				"/>
				
					<rect x="244.6" y="459.2" transform="matrix(0.7071 0.7071 -0.7071 0.7071 412.5102 -35.5284)" class="st1" width="9.2" height="42"/>
			</g>
		</g>
		<g>
			<g>
				<polygon class="st1" points="277.2,462.1 277.2,471.3 304.2,471.3 304.2,498.2 313.4,498.2 313.4,462.1 				"/>
				
					<rect x="290.8" y="459.2" transform="matrix(0.7071 0.7071 -0.7071 0.7071 426.0441 -68.2021)" class="st1" width="9.2" height="42"/>
			</g>
		</g>
		<g>
			<g>
				<polygon class="st1" points="323.5,462.1 323.5,471.3 350.4,471.3 350.4,498.2 359.6,498.2 359.6,462.1 				"/>
				
					<rect x="337" y="459.2" transform="matrix(0.7071 0.7071 -0.7071 0.7071 439.578 -100.8758)" class="st1" width="9.2" height="42"/>
			</g>
		</g>
		<g>
			<g>
				<polygon class="st1" points="369.7,462.1 369.7,471.3 396.6,471.3 396.6,498.2 405.8,498.2 405.8,462.1 				"/>
				
					<rect x="383.2" y="459.2" transform="matrix(0.7071 0.7071 -0.7071 0.7071 453.1119 -133.5495)" class="st1" width="9.2" height="42"/>
			</g>
		</g>
		<g>
			<g>
				<polygon class="st1" points="415.9,462.1 415.9,471.3 442.8,471.3 442.8,498.2 452,498.2 452,462.1 				"/>
				
					<rect x="429.4" y="459.2" transform="matrix(0.7071 0.7071 -0.7071 0.7071 466.6458 -166.2232)" class="st1" width="9.2" height="42"/>
			</g>
		</g>
		<g>
			<g>
				<polygon class="st1" points="462.1,462.1 462.1,471.3 489,471.3 489,498.2 498.2,498.2 498.2,462.1 				"/>
				
					<rect x="475.6" y="459.2" transform="matrix(0.7071 0.7071 -0.7071 0.7071 480.1797 -198.8969)" class="st1" width="9.2" height="42"/>
			</g>
		</g>
		<g>
			<g>
				<polygon class="st1" points="508.3,462.1 508.3,471.3 535.2,471.3 535.2,498.2 544.4,498.2 544.4,462.1 				"/>
				
					<rect x="521.8" y="459.2" transform="matrix(0.7071 0.7071 -0.7071 0.7071 493.7136 -231.5706)" class="st1" width="9.2" height="42"/>
			</g>
		</g>
		<g>
			<g>
				<polygon class="st1" points="554.5,462.1 554.5,471.3 581.4,471.3 581.4,498.2 590.6,498.2 590.6,462.1 				"/>
				
					<rect x="568" y="459.2" transform="matrix(0.7071 0.7071 -0.7071 0.7071 507.2474 -264.2443)" class="st1" width="9.2" height="42"/>
			</g>
		</g>
		<g>
			<g>
				<polygon class="st1" points="600.7,462.1 600.7,471.3 627.6,471.3 627.6,498.2 636.8,498.2 636.8,462.1 				"/>
				
					<rect x="614.2" y="459.2" transform="matrix(0.7071 0.7071 -0.7071 0.7071 520.7813 -296.918)" class="st1" width="9.2" height="42"/>
			</g>
		</g>
		<g>
			<g>
				<polygon class="st1" points="646.9,462.1 646.9,471.3 673.8,471.3 673.8,498.2 683,498.2 683,462.1 				"/>
				
					<rect x="660.4" y="459.2" transform="matrix(0.7071 0.7071 -0.7071 0.7071 534.3152 -329.5917)" class="st1" width="9.2" height="42"/>
			</g>
		</g>
		<g>
			<g>
				<polygon class="st1" points="693.1,462.1 693.1,471.3 720,471.3 720,498.2 729.2,498.2 729.2,462.1 				"/>
				
					<rect x="706.6" y="459.2" transform="matrix(0.7071 0.7071 -0.7071 0.7071 547.8491 -362.2654)" class="st1" width="9.2" height="42"/>
			</g>
		</g>
		<g>
			<g>
				<polygon class="st1" points="739.3,462.1 739.3,471.3 766.2,471.3 766.2,498.2 775.4,498.2 775.4,462.1 				"/>
				
					<rect x="752.8" y="459.2" transform="matrix(0.7071 0.7071 -0.7071 0.7071 561.383 -394.9391)" class="st1" width="9.2" height="42"/>
			</g>
		</g>
		<g>
			<g>
				<polygon class="st1" points="785.5,462.1 785.5,471.3 812.4,471.3 812.4,498.2 821.6,498.2 821.6,462.1 				"/>
				
					<rect x="799.1" y="459.2" transform="matrix(0.7071 0.7071 -0.7071 0.7071 574.9169 -427.6128)" class="st1" width="9.2" height="42"/>
			</g>
		</g>
		<g>
			<g>
				<polygon class="st1" points="0,508.3 0,517.5 26.9,517.5 26.9,544.4 36.1,544.4 36.1,508.3 				"/>
				
					<rect x="13.5" y="505.4" transform="matrix(0.7071 0.7071 -0.7071 0.7071 377.5145 141.3739)" class="st1" width="9.2" height="42"/>
			</g>
		</g>
		<g>
			<g>
				<polygon class="st1" points="46.2,508.3 46.2,517.5 73.1,517.5 73.1,544.4 82.3,544.4 82.3,508.3 				"/>
				
					<rect x="59.7" y="505.4" transform="matrix(0.7071 0.7071 -0.7071 0.7071 391.0483 108.7002)" class="st1" width="9.2" height="42"/>
			</g>
		</g>
		<g>
			<g>
				<polygon class="st1" points="92.4,508.3 92.4,517.5 119.3,517.5 119.3,544.4 128.5,544.4 128.5,508.3 				"/>
				
					<rect x="105.9" y="505.4" transform="matrix(0.7071 0.7071 -0.7071 0.7071 404.5822 76.0265)" class="st1" width="9.2" height="42"/>
			</g>
		</g>
		<g>
			<g>
				<polygon class="st1" points="138.6,508.3 138.6,517.5 165.5,517.5 165.5,544.4 174.7,544.4 174.7,508.3 				"/>
				
					<rect x="152.1" y="505.4" transform="matrix(0.7071 0.7071 -0.7071 0.7071 418.1161 43.3528)" class="st1" width="9.2" height="42"/>
			</g>
		</g>
		<g>
			<g>
				<polygon class="st1" points="184.8,508.3 184.8,517.5 211.8,517.5 211.8,544.4 220.9,544.4 220.9,508.3 				"/>
				
					<rect x="198.4" y="505.4" transform="matrix(0.7071 0.7071 -0.7071 0.7071 431.65 10.6791)" class="st1" width="9.2" height="42"/>
			</g>
		</g>
		<g>
			<g>
				<polygon class="st1" points="231,508.3 231,517.5 258,517.5 258,544.4 267.2,544.4 267.2,508.3 				"/>
				
					<rect x="244.6" y="505.4" transform="matrix(0.7071 0.7071 -0.7071 0.7071 445.1839 -21.9946)" class="st1" width="9.2" height="42"/>
			</g>
		</g>
		<g>
			<g>
				<polygon class="st1" points="277.2,508.3 277.2,517.5 304.2,517.5 304.2,544.4 313.4,544.4 313.4,508.3 				"/>
				
					<rect x="290.8" y="505.4" transform="matrix(0.7071 0.7071 -0.7071 0.7071 458.7178 -54.6682)" class="st1" width="9.2" height="42"/>
			</g>
		</g>
		<g>
			<g>
				<polygon class="st1" points="323.5,508.3 323.5,517.5 350.4,517.5 350.4,544.4 359.6,544.4 359.6,508.3 				"/>
				
					<rect x="337" y="505.4" transform="matrix(0.7071 0.7071 -0.7071 0.7071 472.2517 -87.3419)" class="st1" width="9.2" height="42"/>
			</g>
		</g>
		<g>
			<g>
				<polygon class="st1" points="369.7,508.3 369.7,517.5 396.6,517.5 396.6,544.4 405.8,544.4 405.8,508.3 				"/>
				
					<rect x="383.2" y="505.4" transform="matrix(0.7071 0.7071 -0.7071 0.7071 485.7856 -120.0157)" class="st1" width="9.2" height="42"/>
			</g>
		</g>
		<g>
			<g>
				<polygon class="st1" points="415.9,508.3 415.9,517.5 442.8,517.5 442.8,544.4 452,544.4 452,508.3 				"/>
				
					<rect x="429.4" y="505.4" transform="matrix(0.7071 0.7071 -0.7071 0.7071 499.3195 -152.6893)" class="st1" width="9.2" height="42"/>
			</g>
		</g>
		<g>
			<g>
				<polygon class="st1" points="462.1,508.3 462.1,517.5 489,517.5 489,544.4 498.2,544.4 498.2,508.3 				"/>
				
					<rect x="475.6" y="505.4" transform="matrix(0.7071 0.7071 -0.7071 0.7071 512.8533 -185.363)" class="st1" width="9.2" height="42"/>
			</g>
		</g>
		<g>
			<g>
				<polygon class="st1" points="508.3,508.3 508.3,517.5 535.2,517.5 535.2,544.4 544.4,544.4 544.4,508.3 				"/>
				
					<rect x="521.8" y="505.4" transform="matrix(0.7071 0.7071 -0.7071 0.7071 526.3873 -218.0367)" class="st1" width="9.2" height="42"/>
			</g>
		</g>
		<g>
			<g>
				<polygon class="st1" points="554.5,508.3 554.5,517.5 581.4,517.5 581.4,544.4 590.6,544.4 590.6,508.3 				"/>
				
					<rect x="568" y="505.4" transform="matrix(0.7071 0.7071 -0.7071 0.7071 539.9211 -250.7104)" class="st1" width="9.2" height="42"/>
			</g>
		</g>
		<g>
			<g>
				<polygon class="st1" points="600.7,508.3 600.7,517.5 627.6,517.5 627.6,544.4 636.8,544.4 636.8,508.3 				"/>
				
					<rect x="614.2" y="505.4" transform="matrix(0.7071 0.7071 -0.7071 0.7071 553.455 -283.3841)" class="st1" width="9.2" height="42"/>
			</g>
		</g>
		<g>
			<g>
				<polygon class="st1" points="646.9,508.3 646.9,517.5 673.8,517.5 673.8,544.4 683,544.4 683,508.3 				"/>
				
					<rect x="660.4" y="505.4" transform="matrix(0.7071 0.7071 -0.7071 0.7071 566.9889 -316.0578)" class="st1" width="9.2" height="42"/>
			</g>
		</g>
		<g>
			<g>
				<polygon class="st1" points="693.1,508.3 693.1,517.5 720,517.5 720,544.4 729.2,544.4 729.2,508.3 				"/>
				
					<rect x="706.6" y="505.4" transform="matrix(0.7071 0.7071 -0.7071 0.7071 580.5228 -348.7315)" class="st1" width="9.2" height="42"/>
			</g>
		</g>
		<g>
			<g>
				<polygon class="st1" points="739.3,508.3 739.3,517.5 766.2,517.5 766.2,544.4 775.4,544.4 775.4,508.3 				"/>
				
					<rect x="752.8" y="505.4" transform="matrix(0.7071 0.7071 -0.7071 0.7071 594.0567 -381.4052)" class="st1" width="9.2" height="42"/>
			</g>
		</g>
		<g>
			<g>
				<polygon class="st1" points="785.5,508.3 785.5,517.5 812.4,517.5 812.4,544.4 821.6,544.4 821.6,508.3 				"/>
				
					<rect x="799.1" y="505.4" transform="matrix(0.7071 0.7071 -0.7071 0.7071 607.5906 -414.0789)" class="st1" width="9.2" height="42"/>
			</g>
		</g>
		<g>
			<g>
				<polygon class="st1" points="0,554.5 0,563.7 26.9,563.7 26.9,590.6 36.1,590.6 36.1,554.5 				"/>
				
					<rect x="13.5" y="551.6" transform="matrix(0.7071 0.7071 -0.7071 0.7071 410.1882 154.9078)" class="st1" width="9.2" height="42"/>
			</g>
		</g>
		<g>
			<g>
				<polygon class="st1" points="46.2,554.5 46.2,563.7 73.1,563.7 73.1,590.6 82.3,590.6 82.3,554.5 				"/>
				
					<rect x="59.7" y="551.6" transform="matrix(0.7071 0.7071 -0.7071 0.7071 423.722 122.2341)" class="st1" width="9.2" height="42"/>
			</g>
		</g>
		<g>
			<g>
				<polygon class="st1" points="92.4,554.5 92.4,563.7 119.3,563.7 119.3,590.6 128.5,590.6 128.5,554.5 				"/>
				
					<rect x="105.9" y="551.6" transform="matrix(0.7071 0.7071 -0.7071 0.7071 437.256 89.5604)" class="st1" width="9.2" height="42"/>
			</g>
		</g>
		<g>
			<g>
				<polygon class="st1" points="138.6,554.5 138.6,563.7 165.5,563.7 165.5,590.6 174.7,590.6 174.7,554.5 				"/>
				
					<rect x="152.1" y="551.6" transform="matrix(0.7071 0.7071 -0.7071 0.7071 450.7898 56.8867)" class="st1" width="9.2" height="42"/>
			</g>
		</g>
		<g>
			<g>
				<polygon class="st1" points="184.8,554.5 184.8,563.7 211.8,563.7 211.8,590.6 220.9,590.6 220.9,554.5 				"/>
				
					<rect x="198.4" y="551.6" transform="matrix(0.7071 0.7071 -0.7071 0.7071 464.3237 24.213)" class="st1" width="9.2" height="42"/>
			</g>
		</g>
		<g>
			<g>
				<polygon class="st1" points="231,554.5 231,563.7 258,563.7 258,590.6 267.2,590.6 267.2,554.5 				"/>
				
					<rect x="244.6" y="551.6" transform="matrix(0.7071 0.7071 -0.7071 0.7071 477.8576 -8.4607)" class="st1" width="9.2" height="42"/>
			</g>
		</g>
		<g>
			<g>
				<polygon class="st1" points="277.2,554.5 277.2,563.7 304.2,563.7 304.2,590.6 313.4,590.6 313.4,554.5 				"/>
				
					<rect x="290.8" y="551.6" transform="matrix(0.7071 0.7071 -0.7071 0.7071 491.3915 -41.1344)" class="st1" width="9.2" height="42"/>
			</g>
		</g>
		<g>
			<g>
				<polygon class="st1" points="323.5,554.5 323.5,563.7 350.4,563.7 350.4,590.6 359.6,590.6 359.6,554.5 				"/>
				
					<rect x="337" y="551.6" transform="matrix(0.7071 0.7071 -0.7071 0.7071 504.9254 -73.8081)" class="st1" width="9.2" height="42"/>
			</g>
		</g>
		<g>
			<g>
				<polygon class="st1" points="369.7,554.5 369.7,563.7 396.6,563.7 396.6,590.6 405.8,590.6 405.8,554.5 				"/>
				
					<rect x="383.2" y="551.6" transform="matrix(0.7071 0.7071 -0.7071 0.7071 518.4593 -106.4818)" class="st1" width="9.2" height="42"/>
			</g>
		</g>
		<g>
			<g>
				<polygon class="st1" points="415.9,554.5 415.9,563.7 442.8,563.7 442.8,590.6 452,590.6 452,554.5 				"/>
				
					<rect x="429.4" y="551.6" transform="matrix(0.7071 0.7071 -0.7071 0.7071 531.9932 -139.1555)" class="st1" width="9.2" height="42"/>
			</g>
		</g>
		<g>
			<g>
				<polygon class="st1" points="462.1,554.5 462.1,563.7 489,563.7 489,590.6 498.2,590.6 498.2,554.5 				"/>
				
					<rect x="475.6" y="551.6" transform="matrix(0.7071 0.7071 -0.7071 0.7071 545.527 -171.8291)" class="st1" width="9.2" height="42"/>
			</g>
		</g>
		<g>
			<g>
				<polygon class="st1" points="508.3,554.5 508.3,563.7 535.2,563.7 535.2,590.6 544.4,590.6 544.4,554.5 				"/>
				
					<rect x="521.8" y="551.6" transform="matrix(0.7071 0.7071 -0.7071 0.7071 559.0609 -204.5029)" class="st1" width="9.2" height="42"/>
			</g>
		</g>
		<g>
			<g>
				<polygon class="st1" points="554.5,554.5 554.5,563.7 581.4,563.7 581.4,590.6 590.6,590.6 590.6,554.5 				"/>
				
					<rect x="568" y="551.6" transform="matrix(0.7071 0.7071 -0.7071 0.7071 572.5948 -237.1765)" class="st1" width="9.2" height="42"/>
			</g>
		</g>
		<g>
			<g>
				<polygon class="st1" points="600.7,554.5 600.7,563.7 627.6,563.7 627.6,590.6 636.8,590.6 636.8,554.5 				"/>
				
					<rect x="614.2" y="551.6" transform="matrix(0.7071 0.7071 -0.7071 0.7071 586.1287 -269.8502)" class="st1" width="9.2" height="42"/>
			</g>
		</g>
		<g>
			<g>
				<polygon class="st1" points="646.9,554.5 646.9,563.7 673.8,563.7 673.8,590.6 683,590.6 683,554.5 				"/>
				
					<rect x="660.4" y="551.6" transform="matrix(0.7071 0.7071 -0.7071 0.7071 599.6626 -302.5239)" class="st1" width="9.2" height="42"/>
			</g>
		</g>
		<g>
			<g>
				<polygon class="st1" points="693.1,554.5 693.1,563.7 720,563.7 720,590.6 729.2,590.6 729.2,554.5 				"/>
				
					<rect x="706.6" y="551.6" transform="matrix(0.7071 0.7071 -0.7071 0.7071 613.1965 -335.1977)" class="st1" width="9.2" height="42"/>
			</g>
		</g>
		<g>
			<g>
				<polygon class="st1" points="739.3,554.5 739.3,563.7 766.2,563.7 766.2,590.6 775.4,590.6 775.4,554.5 				"/>
				
					<rect x="752.8" y="551.6" transform="matrix(0.7071 0.7071 -0.7071 0.7071 626.7304 -367.8714)" class="st1" width="9.2" height="42"/>
			</g>
		</g>
		<g>
			<g>
				<polygon class="st1" points="785.5,554.5 785.5,563.7 812.4,563.7 812.4,590.6 821.6,590.6 821.6,554.5 				"/>
				
					<rect x="799.1" y="551.6" transform="matrix(0.7071 0.7071 -0.7071 0.7071 640.2643 -400.545)" class="st1" width="9.2" height="42"/>
			</g>
		</g>
		<g>
			<g>
				<polygon class="st1" points="0,600.7 0,609.9 26.9,609.9 26.9,636.8 36.1,636.8 36.1,600.7 				"/>
				
					<rect x="13.5" y="597.8" transform="matrix(0.7071 0.7071 -0.7071 0.7071 442.8618 168.4417)" class="st1" width="9.2" height="42"/>
			</g>
		</g>
		<g>
			<g>
				<polygon class="st1" points="46.2,600.7 46.2,609.9 73.1,609.9 73.1,636.8 82.3,636.8 82.3,600.7 				"/>
				
					<rect x="59.7" y="597.8" transform="matrix(0.7071 0.7071 -0.7071 0.7071 456.3958 135.768)" class="st1" width="9.2" height="42"/>
			</g>
		</g>
		<g>
			<g>
				<polygon class="st1" points="92.4,600.7 92.4,609.9 119.3,609.9 119.3,636.8 128.5,636.8 128.5,600.7 				"/>
				
					<rect x="105.9" y="597.8" transform="matrix(0.7071 0.7071 -0.7071 0.7071 469.9296 103.0943)" class="st1" width="9.2" height="42"/>
			</g>
		</g>
		<g>
			<g>
				<polygon class="st1" points="138.6,600.7 138.6,609.9 165.5,609.9 165.5,636.8 174.7,636.8 174.7,600.7 				"/>
				
					<rect x="152.1" y="597.8" transform="matrix(0.7071 0.7071 -0.7071 0.7071 483.4635 70.4206)" class="st1" width="9.2" height="42"/>
			</g>
		</g>
		<g>
			<g>
				<polygon class="st1" points="184.8,600.7 184.8,609.9 211.8,609.9 211.8,636.8 220.9,636.8 220.9,600.7 				"/>
				
					<rect x="198.4" y="597.8" transform="matrix(0.7071 0.7071 -0.7071 0.7071 496.9974 37.7469)" class="st1" width="9.2" height="42"/>
			</g>
		</g>
		<g>
			<g>
				<polygon class="st1" points="231,600.7 231,609.9 258,609.9 258,636.8 267.2,636.8 267.2,600.7 				"/>
				
					<rect x="244.6" y="597.8" transform="matrix(0.7071 0.7071 -0.7071 0.7071 510.5313 5.0732)" class="st1" width="9.2" height="42"/>
			</g>
		</g>
		<g>
			<g>
				<polygon class="st1" points="277.2,600.7 277.2,609.9 304.2,609.9 304.2,636.8 313.4,636.8 313.4,600.7 				"/>
				
					<rect x="290.8" y="597.8" transform="matrix(0.7071 0.7071 -0.7071 0.7071 524.0652 -27.6005)" class="st1" width="9.2" height="42"/>
			</g>
		</g>
		<g>
			<g>
				<polygon class="st1" points="323.5,600.7 323.5,609.9 350.4,609.9 350.4,636.8 359.6,636.8 359.6,600.7 				"/>
				
					<rect x="337" y="597.8" transform="matrix(0.7071 0.7071 -0.7071 0.7071 537.5991 -60.2742)" class="st1" width="9.2" height="42"/>
			</g>
		</g>
		<g>
			<g>
				<polygon class="st1" points="369.7,600.7 369.7,609.9 396.6,609.9 396.6,636.8 405.8,636.8 405.8,600.7 				"/>
				
					<rect x="383.2" y="597.8" transform="matrix(0.7071 0.7071 -0.7071 0.7071 551.133 -92.9479)" class="st1" width="9.2" height="42"/>
			</g>
		</g>
		<g>
			<g>
				<polygon class="st1" points="415.9,600.7 415.9,609.9 442.8,609.9 442.8,636.8 452,636.8 452,600.7 				"/>
				
					<rect x="429.4" y="597.8" transform="matrix(0.7071 0.7071 -0.7071 0.7071 564.6669 -125.6216)" class="st1" width="9.2" height="42"/>
			</g>
		</g>
		<g>
			<g>
				<polygon class="st1" points="462.1,600.7 462.1,609.9 489,609.9 489,636.8 498.2,636.8 498.2,600.7 				"/>
				
					<rect x="475.6" y="597.8" transform="matrix(0.7071 0.7071 -0.7071 0.7071 578.2007 -158.2953)" class="st1" width="9.2" height="42"/>
			</g>
		</g>
		<g>
			<g>
				<polygon class="st1" points="508.3,600.7 508.3,609.9 535.2,609.9 535.2,636.8 544.4,636.8 544.4,600.7 				"/>
				
					<rect x="521.8" y="597.8" transform="matrix(0.7071 0.7071 -0.7071 0.7071 591.7346 -190.969)" class="st1" width="9.2" height="42"/>
			</g>
		</g>
		<g>
			<g>
				<polygon class="st1" points="554.5,600.7 554.5,609.9 581.4,609.9 581.4,636.8 590.6,636.8 590.6,600.7 				"/>
				
					<rect x="568" y="597.8" transform="matrix(0.7071 0.7071 -0.7071 0.7071 605.2685 -223.6427)" class="st1" width="9.2" height="42"/>
			</g>
		</g>
		<g>
			<g>
				<polygon class="st1" points="600.7,600.7 600.7,609.9 627.6,609.9 627.6,636.8 636.8,636.8 636.8,600.7 				"/>
				
					<rect x="614.2" y="597.8" transform="matrix(0.7071 0.7071 -0.7071 0.7071 618.8024 -256.3163)" class="st1" width="9.2" height="42"/>
			</g>
		</g>
		<g>
			<g>
				<polygon class="st1" points="646.9,600.7 646.9,609.9 673.8,609.9 673.8,636.8 683,636.8 683,600.7 				"/>
				
					<rect x="660.4" y="597.8" transform="matrix(0.7071 0.7071 -0.7071 0.7071 632.3363 -288.9901)" class="st1" width="9.2" height="42"/>
			</g>
		</g>
		<g>
			<g>
				<polygon class="st1" points="693.1,600.7 693.1,609.9 720,609.9 720,636.8 729.2,636.8 729.2,600.7 				"/>
				
					<rect x="706.6" y="597.8" transform="matrix(0.7071 0.7071 -0.7071 0.7071 645.8702 -321.6638)" class="st1" width="9.2" height="42"/>
			</g>
		</g>
		<g>
			<g>
				<polygon class="st1" points="739.3,600.7 739.3,609.9 766.2,609.9 766.2,636.8 775.4,636.8 775.4,600.7 				"/>
				
					<rect x="752.8" y="597.8" transform="matrix(0.7071 0.7071 -0.7071 0.7071 659.4041 -354.3375)" class="st1" width="9.2" height="42"/>
			</g>
		</g>
		<g>
			<g>
				<polygon class="st1" points="785.5,600.7 785.5,609.9 812.4,609.9 812.4,636.8 821.6,636.8 821.6,600.7 				"/>
				
					<rect x="799.1" y="597.8" transform="matrix(0.7071 0.7071 -0.7071 0.7071 672.938 -387.0112)" class="st1" width="9.2" height="42"/>
			</g>
		</g>
		<g>
			<g>
				<polygon class="st1" points="0,646.9 0,656.1 26.9,656.1 26.9,683 36.1,683 36.1,646.9 				"/>
				
					<rect x="13.5" y="644" transform="matrix(0.7071 0.7071 -0.7071 0.7071 475.5356 181.9756)" class="st1" width="9.2" height="42"/>
			</g>
		</g>
		<g>
			<g>
				<polygon class="st1" points="46.2,646.9 46.2,656.1 73.1,656.1 73.1,683 82.3,683 82.3,646.9 				"/>
				
					<rect x="59.7" y="644" transform="matrix(0.7071 0.7071 -0.7071 0.7071 489.0694 149.3019)" class="st1" width="9.2" height="42"/>
			</g>
		</g>
		<g>
			<g>
				<polygon class="st1" points="92.4,646.9 92.4,656.1 119.3,656.1 119.3,683 128.5,683 128.5,646.9 				"/>
				
					<rect x="105.9" y="644" transform="matrix(0.7071 0.7071 -0.7071 0.7071 502.6033 116.6282)" class="st1" width="9.2" height="42"/>
			</g>
		</g>
		<g>
			<g>
				<polygon class="st1" points="138.6,646.9 138.6,656.1 165.5,656.1 165.5,683 174.7,683 174.7,646.9 				"/>
				
					<rect x="152.1" y="644" transform="matrix(0.7071 0.7071 -0.7071 0.7071 516.1372 83.9545)" class="st1" width="9.2" height="42"/>
			</g>
		</g>
		<g>
			<g>
				<polygon class="st1" points="184.8,646.9 184.8,656.1 211.8,656.1 211.8,683 220.9,683 220.9,646.9 				"/>
				
					<rect x="198.4" y="644" transform="matrix(0.7071 0.7071 -0.7071 0.7071 529.6711 51.2808)" class="st1" width="9.2" height="42"/>
			</g>
		</g>
		<g>
			<g>
				<polygon class="st1" points="231,646.9 231,656.1 258,656.1 258,683 267.2,683 267.2,646.9 				"/>
				
					<rect x="244.6" y="644" transform="matrix(0.7071 0.7071 -0.7071 0.7071 543.205 18.6071)" class="st1" width="9.2" height="42"/>
			</g>
		</g>
		<g>
			<g>
				<polygon class="st1" points="277.2,646.9 277.2,656.1 304.2,656.1 304.2,683 313.4,683 313.4,646.9 				"/>
				
					<rect x="290.8" y="644" transform="matrix(0.7071 0.7071 -0.7071 0.7071 556.7389 -14.0666)" class="st1" width="9.2" height="42"/>
			</g>
		</g>
		<g>
			<g>
				<polygon class="st1" points="323.5,646.9 323.5,656.1 350.4,656.1 350.4,683 359.6,683 359.6,646.9 				"/>
				
					<rect x="337" y="644" transform="matrix(0.7071 0.7071 -0.7071 0.7071 570.2728 -46.7403)" class="st1" width="9.2" height="42"/>
			</g>
		</g>
		<g>
			<g>
				<polygon class="st1" points="369.7,646.9 369.7,656.1 396.6,656.1 396.6,683 405.8,683 405.8,646.9 				"/>
				
					<rect x="383.2" y="644" transform="matrix(0.7071 0.7071 -0.7071 0.7071 583.8066 -79.414)" class="st1" width="9.2" height="42"/>
			</g>
		</g>
		<g>
			<g>
				<polygon class="st1" points="415.9,646.9 415.9,656.1 442.8,656.1 442.8,683 452,683 452,646.9 				"/>
				
					<rect x="429.4" y="644" transform="matrix(0.7071 0.7071 -0.7071 0.7071 597.3406 -112.0877)" class="st1" width="9.2" height="42"/>
			</g>
		</g>
		<g>
			<g>
				<polygon class="st1" points="462.1,646.9 462.1,656.1 489,656.1 489,683 498.2,683 498.2,646.9 				"/>
				
					<rect x="475.6" y="644" transform="matrix(0.7071 0.7071 -0.7071 0.7071 610.8745 -144.7614)" class="st1" width="9.2" height="42"/>
			</g>
		</g>
		<g>
			<g>
				<polygon class="st1" points="508.3,646.9 508.3,656.1 535.2,656.1 535.2,683 544.4,683 544.4,646.9 				"/>
				
					<rect x="521.8" y="644" transform="matrix(0.7071 0.7071 -0.7071 0.7071 624.4083 -177.4351)" class="st1" width="9.2" height="42"/>
			</g>
		</g>
		<g>
			<g>
				<polygon class="st1" points="554.5,646.9 554.5,656.1 581.4,656.1 581.4,683 590.6,683 590.6,646.9 				"/>
				
					<rect x="568" y="644" transform="matrix(0.7071 0.7071 -0.7071 0.7071 637.9422 -210.1088)" class="st1" width="9.2" height="42"/>
			</g>
		</g>
		<g>
			<g>
				<polygon class="st1" points="600.7,646.9 600.7,656.1 627.6,656.1 627.6,683 636.8,683 636.8,646.9 				"/>
				
					<rect x="614.2" y="644" transform="matrix(0.7071 0.7071 -0.7071 0.7071 651.4761 -242.7825)" class="st1" width="9.2" height="42"/>
			</g>
		</g>
		<g>
			<g>
				<polygon class="st1" points="646.9,646.9 646.9,656.1 673.8,656.1 673.8,683 683,683 683,646.9 				"/>
				
					<rect x="660.4" y="644" transform="matrix(0.7071 0.7071 -0.7071 0.7071 665.01 -275.4561)" class="st1" width="9.2" height="42"/>
			</g>
		</g>
		<g>
			<g>
				<polygon class="st1" points="693.1,646.9 693.1,656.1 720,656.1 720,683 729.2,683 729.2,646.9 				"/>
				
					<rect x="706.6" y="644" transform="matrix(0.7071 0.7071 -0.7071 0.7071 678.5439 -308.1299)" class="st1" width="9.2" height="42"/>
			</g>
		</g>
		<g>
			<g>
				<polygon class="st1" points="739.3,646.9 739.3,656.1 766.2,656.1 766.2,683 775.4,683 775.4,646.9 				"/>
				
					<rect x="752.8" y="644" transform="matrix(0.7071 0.7071 -0.7071 0.7071 692.0778 -340.8036)" class="st1" width="9.2" height="42"/>
			</g>
		</g>
		<g>
			<g>
				<polygon class="st1" points="785.5,646.9 785.5,656.1 812.4,656.1 812.4,683 821.6,683 821.6,646.9 				"/>
				
					<rect x="799.1" y="644" transform="matrix(0.7071 0.7071 -0.7071 0.7071 705.6116 -373.4773)" class="st1" width="9.2" height="42"/>
			</g>
		</g>
		<g>
			<g>
				<polygon class="st1" points="0,693.1 0,702.3 26.9,702.3 26.9,729.2 36.1,729.2 36.1,693.1 				"/>
				
					<rect x="13.5" y="690.2" transform="matrix(0.7071 0.7071 -0.7071 0.7071 508.2093 195.5095)" class="st1" width="9.2" height="42"/>
			</g>
		</g>
		<g>
			<g>
				<polygon class="st1" points="46.2,693.1 46.2,702.3 73.1,702.3 73.1,729.2 82.3,729.2 82.3,693.1 				"/>
				
					<rect x="59.7" y="690.2" transform="matrix(0.7071 0.7071 -0.7071 0.7071 521.7432 162.8358)" class="st1" width="9.2" height="42"/>
			</g>
		</g>
		<g>
			<g>
				<polygon class="st1" points="92.4,693.1 92.4,702.3 119.3,702.3 119.3,729.2 128.5,729.2 128.5,693.1 				"/>
				
					<rect x="105.9" y="690.2" transform="matrix(0.7071 0.7071 -0.7071 0.7071 535.277 130.1621)" class="st1" width="9.2" height="42"/>
			</g>
		</g>
		<g>
			<g>
				<polygon class="st1" points="138.6,693.1 138.6,702.3 165.5,702.3 165.5,729.2 174.7,729.2 174.7,693.1 				"/>
				
					<rect x="152.1" y="690.2" transform="matrix(0.7071 0.7071 -0.7071 0.7071 548.811 97.4884)" class="st1" width="9.2" height="42"/>
			</g>
		</g>
		<g>
			<g>
				<polygon class="st1" points="184.8,693.1 184.8,702.3 211.8,702.3 211.8,729.2 220.9,729.2 220.9,693.1 				"/>
				
					<rect x="198.4" y="690.2" transform="matrix(0.7071 0.7071 -0.7071 0.7071 562.3448 64.8147)" class="st1" width="9.2" height="42"/>
			</g>
		</g>
		<g>
			<g>
				<polygon class="st1" points="231,693.1 231,702.3 258,702.3 258,729.2 267.2,729.2 267.2,693.1 				"/>
				
					<rect x="244.6" y="690.2" transform="matrix(0.7071 0.7071 -0.7071 0.7071 575.8787 32.141)" class="st1" width="9.2" height="42"/>
			</g>
		</g>
		<g>
			<g>
				<polygon class="st1" points="277.2,693.1 277.2,702.3 304.2,702.3 304.2,729.2 313.4,729.2 313.4,693.1 				"/>
				
					<rect x="290.8" y="690.2" transform="matrix(0.7071 0.7071 -0.7071 0.7071 589.4126 -0.5327)" class="st1" width="9.2" height="42"/>
			</g>
		</g>
		<g>
			<g>
				<polygon class="st1" points="323.5,693.1 323.5,702.3 350.4,702.3 350.4,729.2 359.6,729.2 359.6,693.1 				"/>
				
					<rect x="337" y="690.2" transform="matrix(0.7071 0.7071 -0.7071 0.7071 602.9465 -33.2064)" class="st1" width="9.2" height="42"/>
			</g>
		</g>
		<g>
			<g>
				<polygon class="st1" points="369.7,693.1 369.7,702.3 396.6,702.3 396.6,729.2 405.8,729.2 405.8,693.1 				"/>
				
					<rect x="383.2" y="690.2" transform="matrix(0.7071 0.7071 -0.7071 0.7071 616.4804 -65.8801)" class="st1" width="9.2" height="42"/>
			</g>
		</g>
		<g>
			<g>
				<polygon class="st1" points="415.9,693.1 415.9,702.3 442.8,702.3 442.8,729.2 452,729.2 452,693.1 				"/>
				
					<rect x="429.4" y="690.2" transform="matrix(0.7071 0.7071 -0.7071 0.7071 630.0143 -98.5538)" class="st1" width="9.2" height="42"/>
			</g>
		</g>
		<g>
			<g>
				<polygon class="st1" points="462.1,693.1 462.1,702.3 489,702.3 489,729.2 498.2,729.2 498.2,693.1 				"/>
				
					<rect x="475.6" y="690.2" transform="matrix(0.7071 0.7071 -0.7071 0.7071 643.5482 -131.2275)" class="st1" width="9.2" height="42"/>
			</g>
		</g>
		<g>
			<g>
				<polygon class="st1" points="508.3,693.1 508.3,702.3 535.2,702.3 535.2,729.2 544.4,729.2 544.4,693.1 				"/>
				
					<rect x="521.8" y="690.2" transform="matrix(0.7071 0.7071 -0.7071 0.7071 657.082 -163.9012)" class="st1" width="9.2" height="42"/>
			</g>
		</g>
		<g>
			<g>
				<polygon class="st1" points="554.5,693.1 554.5,702.3 581.4,702.3 581.4,729.2 590.6,729.2 590.6,693.1 				"/>
				
					<rect x="568" y="690.2" transform="matrix(0.7071 0.7071 -0.7071 0.7071 670.616 -196.5749)" class="st1" width="9.2" height="42"/>
			</g>
		</g>
		<g>
			<g>
				<polygon class="st1" points="600.7,693.1 600.7,702.3 627.6,702.3 627.6,729.2 636.8,729.2 636.8,693.1 				"/>
				
					<rect x="614.2" y="690.2" transform="matrix(0.7071 0.7071 -0.7071 0.7071 684.1498 -229.2486)" class="st1" width="9.2" height="42"/>
			</g>
		</g>
		<g>
			<g>
				<polygon class="st1" points="646.9,693.1 646.9,702.3 673.8,702.3 673.8,729.2 683,729.2 683,693.1 				"/>
				
					<rect x="660.4" y="690.2" transform="matrix(0.7071 0.7071 -0.7071 0.7071 697.6837 -261.9222)" class="st1" width="9.2" height="42"/>
			</g>
		</g>
		<g>
			<g>
				<polygon class="st1" points="693.1,693.1 693.1,702.3 720,702.3 720,729.2 729.2,729.2 729.2,693.1 				"/>
				
					<rect x="706.6" y="690.2" transform="matrix(0.7071 0.7071 -0.7071 0.7071 711.2177 -294.596)" class="st1" width="9.2" height="42"/>
			</g>
		</g>
		<g>
			<g>
				<polygon class="st1" points="739.3,693.1 739.3,702.3 766.2,702.3 766.2,729.2 775.4,729.2 775.4,693.1 				"/>
				
					<rect x="752.8" y="690.2" transform="matrix(0.7071 0.7071 -0.7071 0.7071 724.7515 -327.2697)" class="st1" width="9.2" height="42"/>
			</g>
		</g>
		<g>
			<g>
				<polygon class="st1" points="785.5,693.1 785.5,702.3 812.4,702.3 812.4,729.2 821.6,729.2 821.6,693.1 				"/>
				
					<rect x="799.1" y="690.2" transform="matrix(0.7071 0.7071 -0.7071 0.7071 738.2854 -359.9434)" class="st1" width="9.2" height="42"/>
			</g>
		</g>
		<g>
			<g>
				<polygon class="st1" points="0,739.3 0,748.5 26.9,748.5 26.9,775.4 36.1,775.4 36.1,739.3 				"/>
				
					<rect x="13.5" y="736.4" transform="matrix(0.7071 0.7071 -0.7071 0.7071 540.883 209.0434)" class="st1" width="9.2" height="42"/>
			</g>
		</g>
		<g>
			<g>
				<polygon class="st1" points="46.2,739.3 46.2,748.5 73.1,748.5 73.1,775.4 82.3,775.4 82.3,739.3 				"/>
				
					<rect x="59.7" y="736.4" transform="matrix(0.7071 0.7071 -0.7071 0.7071 554.4169 176.3697)" class="st1" width="9.2" height="42"/>
			</g>
		</g>
		<g>
			<g>
				<polygon class="st1" points="92.4,739.3 92.4,748.5 119.3,748.5 119.3,775.4 128.5,775.4 128.5,739.3 				"/>
				
					<rect x="105.9" y="736.4" transform="matrix(0.7071 0.7071 -0.7071 0.7071 567.9507 143.696)" class="st1" width="9.2" height="42"/>
			</g>
		</g>
		<g>
			<g>
				<polygon class="st1" points="138.6,739.3 138.6,748.5 165.5,748.5 165.5,775.4 174.7,775.4 174.7,739.3 				"/>
				
					<rect x="152.1" y="736.4" transform="matrix(0.7071 0.7071 -0.7071 0.7071 581.4846 111.0223)" class="st1" width="9.2" height="42"/>
			</g>
		</g>
		<g>
			<g>
				<polygon class="st1" points="184.8,739.3 184.8,748.5 211.8,748.5 211.8,775.4 220.9,775.4 220.9,739.3 				"/>
				
					<rect x="198.4" y="736.4" transform="matrix(0.7071 0.7071 -0.7071 0.7071 595.0186 78.3486)" class="st1" width="9.2" height="42"/>
			</g>
		</g>
		<g>
			<g>
				<polygon class="st1" points="231,739.3 231,748.5 258,748.5 258,775.4 267.2,775.4 267.2,739.3 				"/>
				
					<rect x="244.6" y="736.4" transform="matrix(0.7071 0.7071 -0.7071 0.7071 608.5524 45.6749)" class="st1" width="9.2" height="42"/>
			</g>
		</g>
		<g>
			<g>
				<polygon class="st1" points="277.2,739.3 277.2,748.5 304.2,748.5 304.2,775.4 313.4,775.4 313.4,739.3 				"/>
				
					<rect x="290.8" y="736.4" transform="matrix(0.7071 0.7071 -0.7071 0.7071 622.0863 13.0012)" class="st1" width="9.2" height="42"/>
			</g>
		</g>
		<g>
			<g>
				<polygon class="st1" points="323.5,739.3 323.5,748.5 350.4,748.5 350.4,775.4 359.6,775.4 359.6,739.3 				"/>
				
					<rect x="337" y="736.4" transform="matrix(0.7071 0.7071 -0.7071 0.7071 635.6202 -19.6725)" class="st1" width="9.2" height="42"/>
			</g>
		</g>
		<g>
			<g>
				<polygon class="st1" points="369.7,739.3 369.7,748.5 396.6,748.5 396.6,775.4 405.8,775.4 405.8,739.3 				"/>
				
					<rect x="383.2" y="736.4" transform="matrix(0.7071 0.7071 -0.7071 0.7071 649.1541 -52.3462)" class="st1" width="9.2" height="42"/>
			</g>
		</g>
		<g>
			<g>
				<polygon class="st1" points="415.9,739.3 415.9,748.5 442.8,748.5 442.8,775.4 452,775.4 452,739.3 				"/>
				
					<rect x="429.4" y="736.4" transform="matrix(0.7071 0.7071 -0.7071 0.7071 662.688 -85.0199)" class="st1" width="9.2" height="42"/>
			</g>
		</g>
		<g>
			<g>
				<polygon class="st1" points="462.1,739.3 462.1,748.5 489,748.5 489,775.4 498.2,775.4 498.2,739.3 				"/>
				
					<rect x="475.6" y="736.4" transform="matrix(0.7071 0.7071 -0.7071 0.7071 676.2219 -117.6936)" class="st1" width="9.2" height="42"/>
			</g>
		</g>
		<g>
			<g>
				<polygon class="st1" points="508.3,739.3 508.3,748.5 535.2,748.5 535.2,775.4 544.4,775.4 544.4,739.3 				"/>
				
					<rect x="521.8" y="736.4" transform="matrix(0.7071 0.7071 -0.7071 0.7071 689.7557 -150.3673)" class="st1" width="9.2" height="42"/>
			</g>
		</g>
		<g>
			<g>
				<polygon class="st1" points="554.5,739.3 554.5,748.5 581.4,748.5 581.4,775.4 590.6,775.4 590.6,739.3 				"/>
				
					<rect x="568" y="736.4" transform="matrix(0.7071 0.7071 -0.7071 0.7071 703.2896 -183.041)" class="st1" width="9.2" height="42"/>
			</g>
		</g>
		<g>
			<g>
				<polygon class="st1" points="600.7,739.3 600.7,748.5 627.6,748.5 627.6,775.4 636.8,775.4 636.8,739.3 				"/>
				
					<rect x="614.2" y="736.4" transform="matrix(0.7071 0.7071 -0.7071 0.7071 716.8235 -215.7147)" class="st1" width="9.2" height="42"/>
			</g>
		</g>
		<g>
			<g>
				<polygon class="st1" points="646.9,739.3 646.9,748.5 673.8,748.5 673.8,775.4 683,775.4 683,739.3 				"/>
				
					<rect x="660.4" y="736.4" transform="matrix(0.7071 0.7071 -0.7071 0.7071 730.3574 -248.3884)" class="st1" width="9.2" height="42"/>
			</g>
		</g>
		<g>
			<g>
				<polygon class="st1" points="693.1,739.3 693.1,748.5 720,748.5 720,775.4 729.2,775.4 729.2,739.3 				"/>
				
					<rect x="706.6" y="736.4" transform="matrix(0.7071 0.7071 -0.7071 0.7071 743.8913 -281.0621)" class="st1" width="9.2" height="42"/>
			</g>
		</g>
		<g>
			<g>
				<polygon class="st1" points="739.3,739.3 739.3,748.5 766.2,748.5 766.2,775.4 775.4,775.4 775.4,739.3 				"/>
				
					<rect x="752.8" y="736.4" transform="matrix(0.7071 0.7071 -0.7071 0.7071 757.4252 -313.7358)" class="st1" width="9.2" height="42"/>
			</g>
		</g>
		<g>
			<g>
				<polygon class="st1" points="785.5,739.3 785.5,748.5 812.4,748.5 812.4,775.4 821.6,775.4 821.6,739.3 				"/>
				
					<rect x="799.1" y="736.4" transform="matrix(0.7071 0.7071 -0.7071 0.7071 770.9591 -346.4095)" class="st1" width="9.2" height="42"/>
			</g>
		</g>
		<g>
			<g>
				<polygon class="st1" points="0,785.5 0,794.7 26.9,794.7 26.9,821.6 36.1,821.6 36.1,785.5 				"/>
				
					<rect x="13.5" y="782.6" transform="matrix(0.7071 0.7071 -0.7071 0.7071 573.5566 222.5773)" class="st1" width="9.2" height="42"/>
			</g>
		</g>
		<g>
			<g>
				<polygon class="st1" points="46.2,785.5 46.2,794.7 73.1,794.7 73.1,821.6 82.3,821.6 82.3,785.5 				"/>
				
					<rect x="59.7" y="782.6" transform="matrix(0.7071 0.7071 -0.7071 0.7071 587.0906 189.9036)" class="st1" width="9.2" height="42"/>
			</g>
		</g>
		<g>
			<g>
				<polygon class="st1" points="92.4,785.5 92.4,794.7 119.3,794.7 119.3,821.6 128.5,821.6 128.5,785.5 				"/>
				
					<rect x="105.9" y="782.6" transform="matrix(0.7071 0.7071 -0.7071 0.7071 600.6245 157.2299)" class="st1" width="9.2" height="42"/>
			</g>
		</g>
		<g>
			<g>
				<polygon class="st1" points="138.6,785.5 138.6,794.7 165.5,794.7 165.5,821.6 174.7,821.6 174.7,785.5 				"/>
				
					<rect x="152.1" y="782.6" transform="matrix(0.7071 0.7071 -0.7071 0.7071 614.1583 124.5562)" class="st1" width="9.2" height="42"/>
			</g>
		</g>
		<g>
			<g>
				<polygon class="st1" points="184.8,785.5 184.8,794.7 211.8,794.7 211.8,821.6 220.9,821.6 220.9,785.5 				"/>
				
					<rect x="198.4" y="782.6" transform="matrix(0.7071 0.7071 -0.7071 0.7071 627.6922 91.8825)" class="st1" width="9.2" height="42"/>
			</g>
		</g>
		<g>
			<g>
				<polygon class="st1" points="231,785.5 231,794.7 258,794.7 258,821.6 267.2,821.6 267.2,785.5 				"/>
				
					<rect x="244.6" y="782.6" transform="matrix(0.7071 0.7071 -0.7071 0.7071 641.2261 59.2088)" class="st1" width="9.2" height="42"/>
			</g>
		</g>
		<g>
			<g>
				<polygon class="st1" points="277.2,785.5 277.2,794.7 304.2,794.7 304.2,821.6 313.4,821.6 313.4,785.5 				"/>
				
					<rect x="290.8" y="782.6" transform="matrix(0.7071 0.7071 -0.7071 0.7071 654.76 26.5351)" class="st1" width="9.2" height="42"/>
			</g>
		</g>
		<g>
			<g>
				<polygon class="st1" points="323.5,785.5 323.5,794.7 350.4,794.7 350.4,821.6 359.6,821.6 359.6,785.5 				"/>
				
					<rect x="337" y="782.6" transform="matrix(0.7071 0.7071 -0.7071 0.7071 668.2939 -6.1386)" class="st1" width="9.2" height="42"/>
			</g>
		</g>
		<g>
			<g>
				<polygon class="st1" points="369.7,785.5 369.7,794.7 396.6,794.7 396.6,821.6 405.8,821.6 405.8,785.5 				"/>
				
					<rect x="383.2" y="782.6" transform="matrix(0.7071 0.7071 -0.7071 0.7071 681.8278 -38.8123)" class="st1" width="9.2" height="42"/>
			</g>
		</g>
		<g>
			<g>
				<polygon class="st1" points="415.9,785.5 415.9,794.7 442.8,794.7 442.8,821.6 452,821.6 452,785.5 				"/>
				
					<rect x="429.4" y="782.6" transform="matrix(0.7071 0.7071 -0.7071 0.7071 695.3617 -71.486)" class="st1" width="9.2" height="42"/>
			</g>
		</g>
		<g>
			<g>
				<polygon class="st1" points="462.1,785.5 462.1,794.7 489,794.7 489,821.6 498.2,821.6 498.2,785.5 				"/>
				
					<rect x="475.6" y="782.6" transform="matrix(0.7071 0.7071 -0.7071 0.7071 708.8956 -104.1597)" class="st1" width="9.2" height="42"/>
			</g>
		</g>
		<g>
			<g>
				<polygon class="st1" points="508.3,785.5 508.3,794.7 535.2,794.7 535.2,821.6 544.4,821.6 544.4,785.5 				"/>
				
					<rect x="521.8" y="782.6" transform="matrix(0.7071 0.7071 -0.7071 0.7071 722.4294 -136.8334)" class="st1" width="9.2" height="42"/>
			</g>
		</g>
		<g>
			<g>
				<polygon class="st1" points="554.5,785.5 554.5,794.7 581.4,794.7 581.4,821.6 590.6,821.6 590.6,785.5 				"/>
				
					<rect x="568" y="782.6" transform="matrix(0.7071 0.7071 -0.7071 0.7071 735.9633 -169.5071)" class="st1" width="9.2" height="42"/>
			</g>
		</g>
		<g>
			<g>
				<polygon class="st1" points="600.7,785.5 600.7,794.7 627.6,794.7 627.6,821.6 636.8,821.6 636.8,785.5 				"/>
				
					<rect x="614.2" y="782.6" transform="matrix(0.7071 0.7071 -0.7071 0.7071 749.4972 -202.1808)" class="st1" width="9.2" height="42"/>
			</g>
		</g>
		<g>
			<g>
				<polygon class="st1" points="646.9,785.5 646.9,794.7 673.8,794.7 673.8,821.6 683,821.6 683,785.5 				"/>
				
					<rect x="660.4" y="782.6" transform="matrix(0.7071 0.7071 -0.7071 0.7071 763.0311 -234.8545)" class="st1" width="9.2" height="42"/>
			</g>
		</g>
		<g>
			<g>
				<polygon class="st1" points="693.1,785.5 693.1,794.7 720,794.7 720,821.6 729.2,821.6 729.2,785.5 				"/>
				
					<rect x="706.6" y="782.6" transform="matrix(0.7071 0.7071 -0.7071 0.7071 776.565 -267.5282)" class="st1" width="9.2" height="42"/>
			</g>
		</g>
		<g>
			<g>
				<polygon class="st1" points="739.3,785.5 739.3,794.7 766.2,794.7 766.2,821.6 775.4,821.6 775.4,785.5 				"/>
				
					<rect x="752.8" y="782.6" transform="matrix(0.7071 0.7071 -0.7071 0.7071 790.0989 -300.2019)" class="st1" width="9.2" height="42"/>
			</g>
		</g>
		<g>
			<g>
				<polygon class="st1" points="785.5,785.5 785.5,794.7 812.4,794.7 812.4,821.6 821.6,821.6 821.6,785.5 				"/>
				
					<rect x="799.1" y="782.6" transform="matrix(0.7071 0.7071 -0.7071 0.7071 803.6328 -332.8756)" class="st1" width="9.2" height="42"/>
			</g>
		</g>
	</g>
</g>
</svg>
