<?xml version="1.0" encoding="utf-8"?>
<!-- Generator: Adobe Illustrator 27.0.1, SVG Export Plug-In . SVG Version: 6.00 Build 0)  -->
<svg version="1.1" id="Layer_1" xmlns="http://www.w3.org/2000/svg" xmlns:xlink="http://www.w3.org/1999/xlink" x="0px" y="0px"
	 viewBox="0 0 295 170.6" style="enable-background:new 0 0 295 170.6;" xml:space="preserve">
<style type="text/css">
	.st0{fill:#8DC63F;}
	.st1{fill:#004987;}
</style>
<g>
	<g>
		<path class="st0" d="M246.3,68.5c0,1-0.2,2-0.4,3c-0.3,0.9-0.8,1.8-1.4,2.5c-0.6,0.7-1.4,1.3-2.4,1.7c-1,0.4-2.1,0.7-3.5,0.7
			c-1.3,0-2.4-0.2-3.4-0.7c-1-0.4-1.8-1-2.4-1.7c-0.6-0.7-1.1-1.5-1.4-2.5c-0.3-0.9-0.5-1.9-0.5-3V47.7h-9.1v20.8
			c0,2.3,0.4,4.6,1.2,6.6c0.8,2,1.9,3.8,3.4,5.3c1.5,1.5,3.2,2.7,5.3,3.5c2.1,0.8,4.4,1.3,7,1.3c2.6,0,5-0.4,7-1.3
			c2.1-0.8,3.9-2,5.3-3.5c1.4-1.5,2.5-3.3,3.3-5.3c0.8-2,1.2-4.2,1.2-6.6V47.7h-9.1V68.5z"/>
		<path class="st0" d="M293.9,55.2c-0.7-1.6-1.7-3-3-4.1c-1.3-1.1-2.9-1.9-4.8-2.5c-1.9-0.6-4-0.9-6.3-0.9h-17.3v36.6h9.1V73.8h7.6
			c2.3,0,4.4-0.3,6.3-0.9c1.9-0.6,3.6-1.4,5-2.5c1.4-1.1,2.5-2.5,3.3-4.1c0.8-1.6,1.2-3.6,1.2-5.7C295,58.6,294.6,56.7,293.9,55.2z
			 M285.6,60.9c0,1.8-0.5,3.1-1.5,4c-1,0.9-2.6,1.3-4.6,1.3h-7.9V55.6h7.8c2,0,3.6,0.5,4.6,1.4C285,57.9,285.6,59.2,285.6,60.9z"/>
		<polygon class="st0" points="235.5,0 235.5,9.2 262.4,9.2 262.4,36.1 271.6,36.1 271.6,0 		"/>
		<g>
			<path class="st1" d="M33.4,58.5c0.9-0.9,2-1.6,3.3-2.1c1.3-0.5,2.7-0.7,4.2-0.7c1,0,2,0.2,2.9,0.4c0.9,0.3,1.8,0.6,2.5,0.9
				c0.8,0.4,1.6,0.8,2.3,1.3l0.1,0.1l5.2-7l-0.1-0.1c-0.9-0.8-1.9-1.6-3.2-2.2c-1.1-0.6-2.4-1.1-4-1.6C44.9,47.2,43,47,40.7,47
				c-3,0-5.8,0.5-8.2,1.5c-2.4,1-4.5,2.4-6.2,4.1c-1.7,1.7-3,3.8-3.9,6.1c-0.9,2.3-1.3,4.8-1.3,7.4c0,2.6,0.5,5.1,1.3,7.4
				c0.9,2.3,2.2,4.3,3.9,6.1c1.7,1.7,3.8,3.1,6.2,4.1c2.4,1,5.2,1.5,8.2,1.5c2.2,0,4.2-0.2,5.8-0.7c1.6-0.4,3-1,4.1-1.5
				c1.3-0.6,2.3-1.4,3.2-2.3l0.1-0.1l-5.1-6.8l-0.1-0.1l-0.1,0.1c-0.6,0.5-1.2,1-2,1.4c-0.7,0.3-1.5,0.6-2.4,0.9
				c-0.9,0.3-2,0.4-3.3,0.4c-1.5,0-2.9-0.3-4.2-0.7c-1.3-0.5-2.4-1.2-3.3-2.1c-0.9-0.9-1.6-2-2.1-3.3c-0.5-1.3-0.8-2.7-0.8-4.2
				c0-1.5,0.3-3,0.8-4.2C31.7,60.5,32.5,59.5,33.4,58.5z"/>
			<path class="st1" d="M84.6,71.5c1.9-1.1,3.4-2.5,4.4-4.3c1.1-1.8,1.6-4.1,1.6-6.6c0-2-0.4-3.8-1.1-5.4c-0.7-1.6-1.7-3-3.1-4.1
				c-1.3-1.1-2.9-1.9-4.8-2.5c-1.9-0.6-4-0.9-6.3-0.9H58.2v36.6h9.1V73.8h8.2l7.1,10.5l0,0.1h10.2v-0.8l-8.2-11.4V71.5z M81.3,60.9
				c0,1.8-0.5,3.1-1.5,4c-1,0.9-2.6,1.3-4.6,1.3h-7.9V55.6h7.8c2,0,3.6,0.5,4.6,1.4C80.8,57.9,81.3,59.2,81.3,60.9z"/>
			<polygon class="st1" points="97.4,84.4 126.6,84.4 126.6,76.5 106.5,76.5 106.5,69.7 122.5,69.7 122.5,62.4 106.5,62.4 
				106.5,55.6 126.6,55.6 126.6,47.7 97.4,47.7 			"/>
			<path class="st1" d="M161.8,53c-1.7-1.6-3.7-2.9-6.1-3.8c-2.4-0.9-5.1-1.4-8.2-1.4h-15.2v36.6h15.2c3,0,5.8-0.5,8.2-1.4
				c2.4-0.9,4.4-2.2,6.1-3.8c1.7-1.6,2.9-3.6,3.8-5.8c0.9-2.2,1.3-4.7,1.3-7.3c0-2.6-0.4-5-1.3-7.3C164.8,56.6,163.5,54.6,161.8,53z
				 M157.5,66c0,1.7-0.3,3.3-0.8,4.6c-0.5,1.3-1.3,2.4-2.2,3.2c-0.9,0.9-2.1,1.5-3.4,2c-1.3,0.4-2.8,0.7-4.3,0.7h-5.5V55.6h5.5
				c1.5,0,3,0.2,4.3,0.7c1.3,0.4,2.4,1.1,3.4,2c0.9,0.9,1.7,2,2.2,3.3C157.3,62.8,157.5,64.3,157.5,66z"/>
			<rect x="172.5" y="47.7" class="st1" width="9.1" height="36.6"/>
			<polygon class="st1" points="186,55.6 197.4,55.6 197.4,84.4 206.5,84.4 206.5,55.6 217.9,55.6 217.9,47.7 186,47.7 			"/>
			<polygon class="st1" points="262.4,96 262.4,122.9 9.2,122.9 9.2,9.2 223.9,9.2 223.9,0 0,0 0,132.1 271.6,132.1 271.6,96 			"/>
		</g>
		
			<rect x="248.9" y="-2.9" transform="matrix(0.7071 0.7071 -0.7071 0.7071 87.0445 -173.9363)" class="st0" width="9.2" height="42"/>
	</g>
	<g>
		<path class="st1" d="M69.2,166.7c-1.1,0-2.1-0.2-2.8-0.7s-1.4-1-1.8-1.7v2.1h-3.2v-18.9h3.2l0,7.5c0.5-0.7,1.1-1.3,1.9-1.8
			c0.7-0.5,1.7-0.7,2.8-0.7c0.8,0,1.6,0.2,2.4,0.5c0.8,0.3,1.4,0.8,2,1.4c0.6,0.6,1.1,1.3,1.4,2.2s0.5,1.9,0.5,3v0.1
			c0,1.1-0.2,2.2-0.5,3c-0.4,0.9-0.8,1.6-1.4,2.2c-0.6,0.6-1.3,1.1-2,1.4C70.8,166.5,70,166.7,69.2,166.7z M68.5,164
			c0.5,0,1-0.1,1.5-0.3c0.5-0.2,0.9-0.5,1.2-0.9c0.4-0.4,0.6-0.8,0.8-1.4c0.2-0.5,0.3-1.2,0.3-1.8v-0.1c0-0.7-0.1-1.3-0.3-1.8
			c-0.2-0.5-0.5-1-0.8-1.4c-0.4-0.4-0.8-0.7-1.2-0.9c-0.5-0.2-1-0.3-1.5-0.3c-0.5,0-1,0.1-1.5,0.3c-0.5,0.2-0.9,0.5-1.3,0.9
			c-0.4,0.4-0.7,0.9-0.9,1.4c-0.2,0.5-0.3,1.1-0.3,1.8v0.1c0,0.7,0.1,1.3,0.3,1.8c0.2,0.5,0.5,1,0.9,1.4c0.4,0.4,0.8,0.7,1.3,0.9
			C67.4,163.9,67.9,164,68.5,164z"/>
		<path class="st1" d="M81.6,170.6c-0.7,0-1.2-0.1-1.8-0.2c-0.5-0.1-1-0.3-1.5-0.6l1.1-2.3c0.3,0.2,0.6,0.3,0.9,0.4
			c0.3,0.1,0.6,0.1,0.9,0.1c0.4,0,0.8-0.1,1.1-0.3c0.3-0.2,0.6-0.6,0.8-1.2l-5.7-13.7h3.3l3.9,10.2l3.6-10.2h3.3l-5.4,14.1
			c-0.3,0.7-0.6,1.3-0.9,1.8c-0.3,0.5-0.6,0.9-1,1.2c-0.4,0.3-0.8,0.5-1.2,0.7C82.7,170.6,82.2,170.6,81.6,170.6z"/>
		<path class="st1" d="M113.6,166.8c-1.8,0-3.3-0.3-4.7-1c-1.4-0.6-2.6-1.5-3.7-2.5l2.5-2.9c0.9,0.8,1.9,1.5,2.8,2
			c1,0.5,2,0.7,3.1,0.7c1.4,0,2.5-0.4,3.3-1.1c0.8-0.7,1.2-1.7,1.2-2.9v-0.1c0-1.2-0.4-2.1-1.3-2.8c-0.9-0.7-2-1-3.4-1
			c-0.8,0-1.6,0.1-2.3,0.3c-0.7,0.2-1.3,0.4-1.9,0.7l-2.4-1.6l0.7-11.2h13.7v3.6h-10.2l-0.4,5.4c0.5-0.2,1.1-0.4,1.6-0.5
			c0.6-0.1,1.2-0.2,2-0.2c1.1,0,2.2,0.1,3.1,0.4c1,0.3,1.8,0.7,2.5,1.3c0.7,0.6,1.3,1.3,1.7,2.3c0.4,0.9,0.6,2,0.6,3.2v0.1
			c0,1.2-0.2,2.2-0.6,3.2c-0.4,0.9-1,1.8-1.7,2.4c-0.7,0.7-1.6,1.2-2.7,1.6C116.1,166.6,114.9,166.8,113.6,166.8z"/>
		<path class="st1" d="M131.1,166.7c-1.4,0-2.7-0.2-4-0.7c-1.3-0.5-2.5-1.2-3.6-2.2l1.9-2.3c0.9,0.8,1.8,1.3,2.7,1.8
			c0.9,0.4,1.9,0.6,3.1,0.6c1,0,1.8-0.2,2.3-0.6c0.6-0.4,0.9-1,0.9-1.7v-0.1c0-0.3-0.1-0.6-0.2-0.9c-0.1-0.3-0.3-0.5-0.6-0.7
			c-0.3-0.2-0.7-0.4-1.2-0.6c-0.5-0.2-1.2-0.4-2.1-0.6c-1-0.2-1.8-0.5-2.6-0.8c-0.8-0.3-1.4-0.6-1.9-1c-0.5-0.4-0.9-0.9-1.2-1.5
			c-0.3-0.6-0.4-1.3-0.4-2.1v-0.1c0-0.8,0.2-1.5,0.5-2.1c0.3-0.6,0.7-1.2,1.3-1.7c0.5-0.5,1.2-0.8,1.9-1.1c0.8-0.3,1.6-0.4,2.5-0.4
			c1.3,0,2.5,0.2,3.6,0.6c1.1,0.4,2.1,1,3,1.7l-1.7,2.4c-0.8-0.6-1.7-1.1-2.5-1.4c-0.8-0.3-1.6-0.5-2.5-0.5c-0.9,0-1.7,0.2-2.2,0.6
			c-0.5,0.4-0.8,0.9-0.8,1.5v0.1c0,0.3,0.1,0.7,0.2,0.9c0.1,0.3,0.3,0.5,0.7,0.7c0.3,0.2,0.8,0.4,1.3,0.6c0.6,0.2,1.3,0.4,2.1,0.6
			c1,0.2,1.8,0.5,2.5,0.8c0.7,0.3,1.3,0.7,1.8,1.1c0.5,0.4,0.9,0.9,1.1,1.5c0.3,0.6,0.4,1.2,0.4,2v0.1c0,0.8-0.2,1.6-0.5,2.3
			c-0.3,0.7-0.8,1.2-1.3,1.7c-0.6,0.5-1.2,0.8-2,1.1C132.9,166.6,132.1,166.7,131.1,166.7z"/>
		<path class="st1" d="M144.5,151.2h-5.8v-3h14.7v3h-5.8v15.2h-3.2V151.2z"/>
		<path class="st1" d="M159.6,148.1h3l8,18.3h-3.4l-1.8-4.4h-8.6l-1.9,4.4h-3.3L159.6,148.1z M164.2,159.2l-3.1-7.3l-3.1,7.3H164.2z
			"/>
		<path class="st1" d="M172.3,148.3h8.1c1.1,0,2.2,0.2,3,0.5c0.9,0.3,1.6,0.8,2.2,1.3c0.5,0.5,0.9,1.1,1.1,1.7
			c0.3,0.7,0.4,1.4,0.4,2.2v0.1c0,0.7-0.1,1.4-0.3,2c-0.2,0.6-0.5,1.1-0.9,1.6c-0.4,0.5-0.8,0.8-1.4,1.2c-0.5,0.3-1.1,0.6-1.8,0.7
			l4.9,6.9H184l-4.5-6.3h-0.1h-4v6.3h-3.2V148.3z M180.2,157.3c1.1,0,2.1-0.3,2.7-0.8c0.7-0.5,1-1.3,1-2.2v-0.1c0-1-0.3-1.7-1-2.3
			c-0.7-0.5-1.6-0.8-2.8-0.8h-4.7v6.1H180.2z"/>
		<path class="st1" d="M199.4,148.3h8.1c2.1,0,3.7,0.5,4.7,1.6c0.8,0.8,1.2,1.8,1.2,3v0.1c0,0.6-0.1,1-0.2,1.5
			c-0.1,0.4-0.3,0.8-0.6,1.1c-0.2,0.3-0.5,0.6-0.8,0.8c-0.3,0.2-0.6,0.5-1,0.6c0.5,0.2,1,0.4,1.5,0.7c0.4,0.3,0.8,0.5,1.1,0.9
			c0.3,0.3,0.6,0.8,0.7,1.2c0.2,0.5,0.3,1,0.3,1.6v0.1c0,0.8-0.2,1.5-0.5,2.2c-0.3,0.6-0.8,1.1-1.4,1.6c-0.6,0.4-1.3,0.7-2.1,0.9
			c-0.8,0.2-1.7,0.3-2.7,0.3h-8.4V148.3z M206.9,155.9c1,0,1.9-0.2,2.5-0.6c0.6-0.4,0.9-1,0.9-1.9v-0.1c0-0.7-0.3-1.3-0.8-1.7
			c-0.5-0.4-1.3-0.6-2.4-0.6h-4.6v4.8H206.9z M207.8,163.6c1.1,0,1.9-0.2,2.6-0.6c0.6-0.4,0.9-1,0.9-1.9V161c0-0.8-0.3-1.4-0.9-1.8
			c-0.6-0.4-1.5-0.6-2.8-0.6h-5v5H207.8z"/>
		<path class="st1" d="M223,148.1h3l8,18.3h-3.4l-1.8-4.4h-8.6l-1.9,4.4H215L223,148.1z M227.5,159.2l-3.1-7.3l-3.1,7.3H227.5z"/>
		<path class="st1" d="M235.7,148.3h2.9l9.7,12.5v-12.5h3.2v18.1h-2.7l-10-12.9v12.9h-3.2V148.3z"/>
		<path class="st1" d="M255.1,148.3h3.2v9.1l8.6-9.1h3.9l-7.5,7.8l7.9,10.3h-3.9l-6.2-8.2l-2.8,2.9v5.3h-3.2V148.3z"/>
	</g>
</g>
</svg>
