<?xml version="1.0" encoding="utf-8"?>
<!-- Generator: Adobe Illustrator 27.7.0, SVG Export Plug-In . SVG Version: 6.00 Build 0)  -->
<svg version="1.1" id="Layer_1" xmlns="http://www.w3.org/2000/svg" xmlns:xlink="http://www.w3.org/1999/xlink" x="0px" y="0px"
	 viewBox="0 0 36 40" style="enable-background:new 0 0 36 40;" xml:space="preserve">
<style type="text/css">
	.st0{fill:#0C528C;}
</style>
<path class="st0" d="M5.2,40c-1.5,0-2.7-0.5-3.7-1.5S0,36.2,0,34.8V28h6V0h30v34.8c0,1.5-0.5,2.7-1.5,3.7c-1,1-2.3,1.5-3.7,1.5H5.2z
	 M30.7,37c0.6,0,1.2-0.2,1.6-0.6c0.4-0.4,0.6-1,0.6-1.6V3H9v25h19.5v6.8c0,0.6,0.2,1.2,0.6,1.6C29.6,36.8,30.1,37,30.7,37z M12,12V9
	h18v3H12z M12,18v-3h18v3H12z M5.2,37h20.3v-6H3v3.8c0,0.6,0.2,1.2,0.7,1.6C4.1,36.8,4.6,37,5.2,37z M5.2,37H3h22.5H5.2z"/>
</svg>
